var fontJSON=

{"glyphs":{"0":{"ha":707,"x_min":0,"x_max":0,"o":"m 392 -19 b 639 338 549 -11 619 211 b 618 628 653 433 644 535 b 428 869 586 740 539 822 b 393 911 428 890 415 908 b 315 947 375 933 344 947 b 167 858 247 942 206 917 b 89 661 128 799 104 729 b 86 272 58 535 54 399 b 292 -3 113 158 182 46 b 392 -19 324 -17 358 -24 z m 285 169 b 208 388 238 231 215 311 b 271 749 199 510 219 638 b 308 808 281 769 293 790 b 381 774 331 793 357 786 b 519 582 460 736 496 664 b 525 303 546 493 546 393 b 390 104 513 246 464 104 b 285 169 351 104 310 139 z "},"1":{"ha":444,"x_min":0,"x_max":0,"o":"m 365 115 b 364 139 364 119 364 136 b 360 218 363 150 360 208 b 358 606 356 347 354 476 b 365 807 358 631 365 782 b 360 888 365 833 364 861 l 360 892 b 283 974 361 933 324 974 b 60 788 218 972 104 833 b 35 731 36 779 28 754 b 74 703 40 713 56 703 b 107 715 85 703 97 707 b 251 840 126 729 232 825 b 228 596 244 758 232 678 b 224 264 222 485 217 374 b 246 124 226 217 228 167 b 272 82 253 108 261 93 b 324 57 283 72 307 57 b 365 115 351 57 376 85 z "},"2":{"ha":667,"x_min":0,"x_max":0,"o":"m 610 132 b 600 217 646 151 640 206 b 525 224 576 222 550 224 b 189 201 413 221 301 200 b 283 333 218 246 253 289 b 471 625 350 428 418 522 b 521 807 500 681 522 743 b 347 968 521 904 440 968 b 163 906 282 968 218 940 b 92 828 133 886 100 863 b 143 756 85 793 107 756 b 161 756 149 757 156 756 b 197 807 188 756 206 781 b 331 840 239 826 285 840 b 383 815 349 840 378 833 b 292 582 397 760 321 631 b 72 238 264 536 97 286 b 58 207 71 233 61 210 b 71 111 42 176 47 138 b 193 74 100 81 153 74 b 610 132 271 74 538 97 z "},"3":{"ha":714,"x_min":0,"x_max":0,"o":"m 593 128 b 656 335 638 185 664 263 b 399 583 639 464 521 561 b 596 843 474 639 592 742 b 410 986 596 944 496 986 b 133 889 311 986 215 938 b 65 839 110 874 85 860 b 82 761 40 813 46 769 b 94 760 86 760 90 760 b 143 769 111 760 128 765 b 346 836 211 790 276 822 b 396 840 363 839 379 840 b 449 832 414 840 432 839 b 363 733 431 792 394 763 b 169 576 325 696 219 601 b 164 458 121 553 115 485 b 221 451 181 450 201 449 b 279 454 229 453 271 454 b 433 424 332 454 388 449 b 528 301 479 401 528 357 b 297 88 529 196 401 88 b 153 121 275 88 171 106 b 122 133 143 129 133 133 b 86 64 92 133 64 97 b 308 -26 124 7 246 -26 b 593 128 421 -26 524 43 z "},"4":{"ha":732,"x_min":0,"x_max":0,"o":"m 571 -24 b 617 63 615 -18 644 29 b 613 251 614 67 613 239 b 614 419 613 307 614 364 b 633 435 621 425 628 429 b 668 482 649 447 661 464 b 617 553 681 519 653 560 b 629 736 619 614 622 675 b 633 769 629 747 632 758 b 622 831 650 789 646 819 b 617 833 619 831 618 832 b 593 840 610 838 601 840 b 556 824 579 840 564 835 b 479 554 507 765 488 626 b 472 486 476 532 475 508 b 222 407 408 457 293 407 b 196 411 211 407 201 408 b 186 449 186 417 185 438 b 232 586 189 497 210 543 b 386 839 276 674 332 756 b 407 854 394 842 403 847 b 418 874 408 858 415 872 b 435 933 432 888 440 915 b 381 974 428 958 406 974 b 299 925 349 974 321 947 b 49 453 203 821 61 600 b 64 353 44 419 49 383 b 231 261 97 286 160 261 b 465 332 311 261 396 296 b 464 313 465 325 464 319 b 524 -11 463 224 447 33 b 571 -24 538 -19 554 -25 z "},"5":{"ha":635,"x_min":0,"x_max":0,"o":"m 501 211 b 571 317 532 240 557 276 b 571 444 585 357 585 404 b 294 613 535 557 406 613 b 194 603 261 613 228 608 b 283 799 224 669 264 731 b 506 843 321 801 471 826 b 496 935 547 863 540 924 b 451 935 489 936 458 935 b 251 917 426 933 278 919 b 214 925 239 922 226 925 b 161 819 158 925 117 868 b 58 614 125 753 81 688 b 53 547 51 593 50 569 b 179 471 65 482 122 471 b 290 476 215 472 254 476 b 451 406 346 476 426 464 b 453 351 458 389 458 369 b 235 188 429 276 304 207 b 151 178 208 179 179 178 b 135 89 100 178 88 107 b 217 72 161 79 189 72 b 501 211 306 72 442 151 z "},"6":{"ha":689,"x_min":0,"x_max":0,"o":"m 639 346 b 624 443 640 379 636 413 b 365 576 579 542 467 576 b 250 558 326 576 288 571 b 226 550 247 557 229 551 b 426 840 258 649 331 790 b 471 854 436 846 460 860 b 499 847 479 851 489 847 b 536 911 533 847 557 883 b 531 921 535 914 533 918 b 440 974 510 954 479 974 b 182 785 336 974 231 868 b 71 510 131 700 92 607 b 83 247 51 425 50 329 b 349 61 126 138 231 61 b 639 346 501 61 629 197 z m 235 249 b 196 419 200 296 192 361 b 288 444 226 428 257 439 b 357 450 306 447 329 450 b 531 371 415 450 517 444 b 526 321 535 354 531 338 b 358 183 501 247 439 183 b 235 249 311 183 263 211 z "},"7":{"ha":665,"x_min":0,"x_max":0,"o":"m 257 -44 b 293 40 299 -39 322 8 b 303 81 296 46 303 75 b 414 381 325 171 375 297 b 457 390 433 385 450 389 b 457 469 500 401 494 461 l 461 478 b 610 758 511 571 569 661 b 628 840 621 785 629 813 b 611 894 628 858 622 879 b 475 946 582 940 525 946 b 203 925 385 946 293 935 b 69 918 181 924 90 913 b 36 844 25 929 1 874 b 258 814 72 813 211 814 b 485 813 335 815 410 818 b 361 589 474 778 378 621 b 288 447 335 543 310 496 b 251 443 275 446 264 444 b 251 367 204 439 206 369 b 168 90 213 285 181 178 b 257 -44 158 24 190 -53 z "},"8":{"ha":593,"x_min":0,"x_max":0,"o":"m 517 346 b 324 603 517 494 442 538 b 282 643 318 625 303 640 b 263 644 278 644 265 642 b 236 701 249 660 235 681 b 415 882 240 761 350 874 b 419 813 419 871 421 825 b 403 715 414 781 411 747 b 376 649 396 692 386 671 b 414 593 364 618 389 593 b 446 610 425 593 438 597 b 524 829 492 672 515 751 b 508 943 526 867 526 908 b 415 997 490 978 454 997 b 328 974 386 997 356 986 b 131 647 207 917 89 775 b 169 576 139 622 151 597 b 58 285 101 497 60 389 b 154 63 58 199 86 117 b 279 17 189 33 233 17 b 517 346 433 17 517 214 z m 207 203 b 196 281 197 226 194 254 b 268 493 200 354 231 428 b 381 417 288 481 367 435 b 400 338 397 396 400 365 b 303 131 403 267 369 154 b 289 128 299 129 293 128 b 207 203 251 128 219 172 z "},"9":{"ha":626,"x_min":0,"x_max":0,"o":"m 249 8 b 347 118 269 21 332 99 b 493 357 406 192 453 272 b 507 390 501 365 507 378 b 568 656 542 474 563 565 b 517 907 574 742 560 833 b 329 1026 479 971 407 1026 b 110 878 231 1026 154 963 b 64 569 63 785 43 671 b 338 317 88 429 188 319 b 200 81 297 235 253 154 b 204 3 164 65 168 17 b 218 0 208 1 214 0 b 249 8 229 0 240 4 z m 211 531 b 185 650 193 567 186 610 b 253 864 183 725 203 808 b 313 897 268 881 290 893 b 357 889 328 899 343 896 b 421 796 390 871 411 832 b 435 658 433 751 436 704 b 389 432 432 582 415 504 b 211 531 319 432 240 463 z "},"\u0000":{"ha":0,"x_min":0,"x_max":0,"o":""},"\r":{"ha":0,"x_min":0,"x_max":0,"o":""}," ":{"ha":417,"x_min":0,"x_max":0,"o":""},"\n":{"ha":0,"x_min":0,"x_max":0,"o":""},"!":{"ha":321,"x_min":0,"x_max":0,"o":"m 249 38 l 238 60 b 228 111 231 76 229 93 b 176 160 226 142 201 160 b 129 122 157 160 136 147 b 126 43 121 97 122 69 b 201 -37 132 13 167 -37 b 249 38 236 -37 267 -1 z m 231 424 b 224 457 228 435 225 446 l 224 615 b 242 936 224 722 238 829 b 238 1001 243 958 244 981 b 188 1046 232 1022 211 1046 b 133 1013 168 1046 143 1031 b 65 615 82 921 67 717 b 82 465 65 565 68 514 b 176 354 90 429 132 354 b 231 424 210 354 240 386 z "},"\"":{"ha":360,"x_min":0,"x_max":0,"o":"m 131 801 b 132 811 131 803 132 810 b 131 890 135 824 132 878 b 104 931 128 907 118 924 b 83 936 97 935 90 936 b 42 906 65 936 47 925 b 35 851 35 889 35 869 b 89 750 36 818 43 750 b 131 801 113 750 136 771 z m 313 782 b 318 863 319 808 321 836 b 288 924 336 888 318 924 b 244 899 271 924 253 913 b 231 790 236 879 228 811 b 272 751 233 765 253 751 b 313 782 290 751 307 761 z "},"‟":{"ha":360,"x_min":0,"x_max":0,"o":"m 131 801 b 132 811 131 803 132 810 b 131 890 135 824 132 878 b 104 931 128 907 118 924 b 83 936 97 935 90 936 b 42 906 65 936 47 925 b 35 851 35 889 35 869 b 89 750 36 818 43 750 b 131 801 113 750 136 771 z m 313 782 b 318 863 319 808 321 836 b 288 924 336 888 318 924 b 244 899 271 924 253 913 b 231 790 236 879 228 811 b 272 751 233 765 253 751 b 313 782 290 751 307 761 z "},"#":{"ha":918,"x_min":0,"x_max":0,"o":"m 261 -108 b 300 -78 275 -101 288 -89 b 260 -1 331 -46 303 4 b 275 143 258 47 267 94 b 286 204 279 164 282 185 b 504 242 358 218 431 231 l 504 240 b 481 75 493 186 483 131 b 489 15 481 54 482 33 b 494 1 489 13 494 3 b 536 -33 499 -22 517 -33 b 578 6 556 -33 576 -19 b 581 15 578 7 581 14 b 631 251 590 46 624 219 b 632 260 631 254 632 257 b 817 285 693 269 756 278 b 863 296 832 286 850 286 b 836 367 890 321 874 367 b 651 353 774 365 713 361 b 693 554 665 419 679 488 b 703 556 697 556 700 556 b 794 554 733 557 764 557 b 801 632 843 553 850 625 b 707 638 771 636 739 638 b 713 667 710 647 711 657 b 725 801 719 711 726 757 b 722 825 725 806 722 822 b 696 876 725 842 710 868 b 675 882 689 881 682 882 b 632 840 653 882 633 865 b 594 639 628 772 610 706 b 592 629 593 636 593 633 b 376 601 519 622 447 613 b 413 751 389 651 401 701 b 465 969 421 782 463 939 b 417 1026 469 1003 443 1026 b 376 1003 401 1026 386 1018 b 322 856 364 982 331 878 b 238 583 293 765 264 675 b 154 572 210 579 182 575 b 117 579 144 579 129 583 b 81 565 104 575 93 569 b 94 485 36 550 47 489 b 149 492 103 485 140 490 b 215 501 161 494 185 497 b 158 258 193 421 175 340 b 149 257 156 258 151 257 b 113 282 142 272 128 282 b 56 243 92 282 67 258 b 88 176 38 217 56 182 b 97 176 90 176 93 176 b 144 179 110 176 126 178 b 135 -22 133 113 125 44 b 219 -117 144 -68 168 -110 b 261 -108 233 -119 247 -115 z m 356 518 b 572 543 428 526 507 535 b 525 332 557 478 539 396 b 303 288 450 318 376 303 b 356 518 318 364 336 442 z "},"$":{"ha":740,"x_min":0,"x_max":0,"o":"m 454 -101 b 454 -29 482 -85 481 -46 b 436 72 443 -25 436 60 l 436 108 b 568 122 481 110 525 114 b 654 150 599 126 629 133 b 690 229 681 167 696 199 b 460 471 679 317 528 426 b 457 472 458 471 458 472 b 475 817 465 588 472 701 b 521 822 490 819 506 822 b 544 818 528 822 539 824 b 549 799 547 815 547 803 b 556 771 549 794 554 775 b 592 743 561 751 576 743 b 631 788 613 743 635 760 b 622 857 629 797 624 849 b 582 911 617 879 601 900 b 478 935 551 929 515 936 l 478 936 b 485 1007 479 961 479 985 b 447 1054 492 1036 469 1054 b 401 993 415 1054 404 1018 b 394 918 399 968 397 943 b 104 665 299 886 140 768 b 101 593 96 643 94 617 b 144 525 108 568 125 544 b 285 425 186 485 236 456 b 338 392 303 414 319 403 l 321 221 l 321 214 b 281 217 307 214 294 215 b 119 251 226 224 172 238 b 89 265 110 261 99 265 b 46 218 65 265 43 246 b 88 168 49 197 68 178 b 318 111 149 132 246 115 b 374 -74 321 43 332 -18 b 432 -107 388 -92 410 -107 b 454 -101 440 -107 447 -106 z m 444 324 l 469 307 b 561 229 501 283 533 258 b 471 217 532 222 501 218 b 439 214 460 215 449 214 b 444 324 439 250 442 288 z m 257 603 b 228 629 247 611 236 619 b 240 649 232 636 236 642 b 381 772 274 690 335 740 b 374 700 378 749 375 724 b 354 538 367 646 361 592 b 257 603 322 558 289 579 z "},"%":{"ha":931,"x_min":0,"x_max":0,"o":"m 342 721 b 336 811 351 750 351 785 b 226 865 315 850 268 865 b 119 824 196 865 132 857 b 43 646 78 775 50 710 b 57 550 40 614 42 578 b 129 508 71 524 100 508 b 342 721 211 508 317 644 z m 331 57 b 351 135 369 61 382 111 b 371 175 358 149 365 161 b 482 378 403 246 443 311 b 604 567 519 442 563 504 b 754 789 624 597 736 756 b 718 861 776 821 751 861 b 656 825 694 861 671 840 b 582 743 629 799 606 771 b 275 275 463 600 353 444 b 236 146 256 235 236 190 b 289 58 236 110 251 69 b 331 57 303 54 317 56 z m 165 751 b 183 778 171 760 176 769 b 193 776 185 779 190 776 b 218 778 201 774 211 775 b 240 776 222 781 236 778 b 257 767 247 775 257 774 b 140 622 257 728 178 647 b 165 751 133 665 144 713 z m 889 226 b 879 304 896 251 892 282 b 754 386 854 347 803 381 b 715 422 753 408 735 422 b 690 414 707 422 697 419 b 671 393 688 411 674 396 b 654 381 665 389 660 386 b 600 276 629 351 614 313 b 590 158 588 239 579 197 b 693 90 603 113 649 90 b 889 226 769 90 867 153 z m 679 186 b 668 217 665 188 667 204 b 707 308 674 250 688 281 b 758 290 721 297 742 299 b 788 272 768 286 779 279 b 800 254 793 268 801 260 b 768 215 794 238 781 226 b 690 185 746 199 718 185 b 679 186 686 185 683 186 z "},"&":{"ha":683,"x_min":0,"x_max":0,"o":"m 588 8 b 574 85 635 19 622 90 b 564 83 571 83 567 82 b 479 171 535 111 507 140 b 624 360 533 219 601 289 b 628 454 633 390 633 422 b 589 488 624 476 607 488 b 549 446 568 488 547 472 b 521 357 549 401 546 396 b 413 247 490 315 453 279 b 275 443 361 308 313 374 b 421 679 321 524 374 600 b 494 863 454 736 486 797 b 482 943 497 890 494 919 b 390 993 461 978 428 993 b 110 676 247 993 122 803 b 147 458 101 603 118 526 b 75 288 118 404 92 347 b 65 149 63 243 54 194 b 204 53 79 81 139 53 b 403 114 272 53 344 79 b 560 6 433 86 519 6 b 588 8 569 6 579 7 z m 232 722 b 381 878 254 779 318 860 b 339 775 375 842 356 808 b 221 585 325 749 236 608 b 232 722 213 629 215 679 z m 185 171 b 182 185 182 172 182 181 b 219 331 182 231 203 289 b 326 193 251 282 289 238 b 214 165 301 182 250 165 b 185 171 203 165 192 167 z "},"'":{"ha":179,"x_min":0,"x_max":0,"o":"m 138 838 b 126 875 133 850 128 861 b 124 944 154 890 154 931 b 92 947 115 947 101 947 b 42 914 71 947 49 932 b 35 847 32 893 29 868 b 63 796 39 828 50 811 b 94 781 72 786 83 781 b 138 838 122 781 147 806 z "},"‛":{"ha":179,"x_min":0,"x_max":0,"o":"m 138 838 b 126 875 133 850 128 861 b 124 944 154 890 154 931 b 92 947 115 947 101 947 b 42 914 71 947 49 932 b 35 847 32 893 29 868 b 63 796 39 828 50 811 b 94 781 72 786 83 781 b 138 838 122 781 147 806 z "},"(":{"ha":386,"x_min":0,"x_max":0,"o":"m 360 -58 b 235 125 304 -10 256 54 b 213 494 200 243 197 371 b 358 1019 235 674 297 847 b 371 1056 361 1024 369 1051 b 319 1135 389 1094 357 1135 b 265 1101 296 1135 279 1119 b 208 986 242 1067 225 1026 b 74 478 142 825 90 653 b 82 199 65 385 65 290 b 263 -94 103 68 158 -15 b 311 -131 269 -100 304 -126 b 332 -136 318 -135 325 -136 b 360 -58 368 -136 394 -87 z "},")":{"ha":383,"x_min":0,"x_max":0,"o":"m 203 -197 b 290 49 247 -164 279 -6 b 314 371 313 154 322 264 b 169 956 300 558 236 781 b 92 1094 157 985 118 1078 b 65 1103 83 1100 74 1103 b 15 1053 39 1103 15 1082 b 26 1019 15 1042 21 1031 b 35 994 29 1017 33 999 b 156 525 76 839 124 683 b 192 256 174 436 188 346 b 164 -42 194 157 181 57 b 140 -147 161 -58 147 -132 b 178 -206 125 -176 150 -206 b 203 -197 186 -206 194 -203 z "},"+":{"ha":531,"x_min":0,"x_max":0,"o":"m 310 242 b 306 299 311 251 307 289 b 300 456 303 350 300 403 b 382 453 328 454 354 454 b 453 460 406 453 429 458 b 453 560 514 465 514 554 b 399 567 446 560 406 567 b 300 563 383 568 343 565 b 322 797 303 642 308 719 b 325 826 324 801 324 822 b 289 876 335 857 313 876 b 250 850 274 876 258 868 b 249 849 250 849 250 850 b 224 719 235 829 226 743 b 201 553 217 664 208 608 b 183 550 193 551 188 551 b 64 525 165 547 82 532 b 51 517 60 522 56 518 b 75 444 13 496 32 438 b 183 454 89 446 169 453 l 193 454 b 194 326 190 411 190 369 b 221 231 196 307 208 246 b 265 208 232 215 249 208 b 310 242 285 208 304 219 z "},",":{"ha":193,"x_min":0,"x_max":0,"o":"m 119 53 b 156 176 128 67 149 161 b 121 231 168 204 146 231 b 76 208 110 231 83 217 b 35 71 57 185 33 103 b 81 29 36 44 58 29 b 119 53 96 29 111 36 z "},"-":{"ha":533,"x_min":0,"x_max":0,"o":"m 478 539 b 275 567 413 558 344 567 b 140 558 231 567 185 564 b 99 571 129 572 114 576 b 40 546 88 568 49 554 b 54 476 17 525 25 489 b 464 456 97 458 415 456 b 478 539 513 454 524 524 z "},".":{"ha":158,"x_min":0,"x_max":0,"o":"m 126 197 b 81 274 143 235 121 276 b 61 269 74 272 68 271 b 49 175 19 256 11 200 b 78 167 57 169 67 167 b 126 197 97 167 117 178 z "},":":{"ha":199,"x_min":0,"x_max":0,"o":"m 151 243 b 126 311 181 269 158 311 b 106 306 119 311 113 310 b 65 226 67 301 42 258 b 103 208 75 214 89 208 b 151 243 124 208 144 221 z m 115 599 b 118 600 117 600 115 600 b 125 667 144 613 149 649 l 124 668 b 85 688 114 682 100 688 b 49 672 72 688 58 683 b 75 589 21 643 38 597 b 115 599 89 588 104 590 z "},";":{"ha":257,"x_min":0,"x_max":0,"o":"m 122 150 b 149 221 129 160 144 211 b 168 249 153 232 161 240 b 176 263 171 253 172 260 b 204 286 181 265 201 283 b 179 354 233 313 210 354 b 157 347 172 354 164 353 b 125 319 151 343 129 324 l 106 310 b 49 246 83 293 60 272 b 44 156 40 225 33 175 b 83 132 53 139 68 132 b 122 150 99 132 113 138 z m 206 685 b 207 688 206 686 206 685 b 161 744 217 718 190 744 b 144 742 156 744 150 744 b 140 661 110 728 107 679 b 143 660 142 660 140 661 b 167 651 150 654 158 651 b 206 685 186 651 204 664 z "},"<":{"ha":615,"x_min":0,"x_max":0,"o":"m 528 271 b 539 372 582 276 590 354 b 256 406 449 403 351 401 b 528 618 350 472 440 542 b 543 643 535 625 540 635 b 533 693 549 660 542 679 b 500 715 526 708 514 715 b 461 669 479 715 457 696 b 300 568 413 628 354 601 b 72 417 222 519 146 471 b 43 388 61 408 50 399 b 76 290 21 350 38 307 b 396 269 125 271 343 271 b 461 267 418 268 439 267 b 528 271 483 267 506 268 z "},"=":{"ha":649,"x_min":0,"x_max":0,"o":"m 132 639 b 426 658 229 647 328 663 b 476 660 443 657 460 657 b 494 661 479 660 492 661 b 546 729 535 651 565 693 b 439 775 526 764 475 775 b 122 725 329 772 228 754 b 94 717 118 725 99 718 b 100 639 46 710 50 638 z m 81 368 b 119 376 86 369 114 375 b 131 375 121 376 129 375 b 169 379 143 376 156 379 b 429 386 256 383 343 381 b 578 404 453 386 557 396 b 583 497 622 418 625 479 b 563 503 576 500 569 501 b 478 506 551 506 490 506 b 200 472 385 510 292 490 b 107 453 186 469 121 460 b 69 444 101 450 76 446 b 81 368 19 435 31 361 z "},">":{"ha":519,"x_min":0,"x_max":0,"o":"m 306 399 b 442 486 353 424 401 450 b 479 547 460 503 475 524 b 472 599 482 564 479 583 b 129 694 433 676 213 692 b 111 697 124 697 118 697 b 82 694 101 697 92 696 b 61 619 43 692 29 643 b 179 583 78 607 158 589 b 313 550 196 581 296 554 b 57 382 274 525 89 415 b 88 306 28 351 49 306 b 306 399 125 306 267 378 z "},"?":{"ha":536,"x_min":0,"x_max":0,"o":"m 311 138 b 297 199 308 158 306 179 b 249 242 301 226 275 250 l 243 242 b 204 213 225 240 210 229 b 213 118 193 183 197 146 b 218 108 214 115 217 113 b 261 81 228 89 244 81 b 311 138 289 81 317 103 z m 296 504 b 225 533 272 513 247 521 b 263 593 233 556 249 574 b 428 782 282 617 408 758 b 490 883 451 814 476 846 b 499 960 500 907 504 935 b 356 1049 482 1028 419 1049 b 221 1022 310 1049 264 1038 b 61 950 190 1013 83 974 b 53 939 60 949 54 940 b 92 876 28 911 54 867 b 107 878 93 876 106 878 b 193 904 136 886 164 897 b 360 921 247 915 304 929 b 308 844 346 893 326 869 b 156 639 258 776 200 713 b 113 549 138 611 119 581 b 172 440 104 501 128 458 b 281 419 206 426 244 419 b 296 504 326 419 340 485 z "},"@":{"ha":1046,"x_min":0,"x_max":0,"o":"m 726 36 b 700 117 764 64 739 117 b 681 113 694 117 688 115 b 603 100 657 101 629 100 b 363 153 518 100 439 113 b 204 311 296 189 235 243 b 189 496 178 367 176 435 b 571 847 222 647 401 847 b 875 590 726 847 860 750 b 860 446 879 542 876 492 b 767 350 846 408 806 350 b 719 400 744 350 726 381 b 692 522 706 440 701 482 b 653 594 686 549 674 578 b 646 615 651 601 650 610 b 635 631 643 618 635 628 b 546 715 626 679 596 715 b 335 554 465 715 374 617 b 288 422 311 514 296 468 b 292 308 279 385 279 344 b 381 246 306 269 340 246 b 475 290 418 246 449 265 b 581 424 515 331 547 379 b 764 238 601 331 660 238 b 897 301 815 238 864 267 b 990 543 956 365 983 457 b 942 774 996 621 979 704 b 575 985 874 901 719 985 b 83 568 350 985 153 765 b 54 393 63 513 53 453 b 510 -21 64 160 283 -21 b 726 36 582 -21 668 -7 z m 556 604 b 565 592 557 606 567 593 b 479 479 547 579 493 497 b 422 406 461 454 443 429 b 556 604 438 496 489 547 z "},"A":{"ha":622,"x_min":0,"x_max":0,"o":"m 133 22 b 151 199 136 82 143 140 b 351 206 218 194 286 196 b 401 218 360 207 379 213 b 418 117 406 183 410 150 b 453 31 425 86 429 51 b 488 18 463 22 475 18 b 533 42 506 18 522 26 b 556 140 553 69 551 107 b 558 269 560 183 561 226 b 533 629 557 315 539 583 b 464 932 522 732 515 842 b 413 988 451 954 435 976 b 375 997 401 994 388 997 b 340 990 363 997 350 994 b 261 906 304 974 282 938 b 63 289 153 738 90 488 b 53 214 33 282 19 238 b 47 154 50 194 49 174 b 47 32 44 114 42 72 b 64 -19 49 14 53 -6 b 94 -36 72 -31 83 -36 b 133 22 119 -36 144 -10 z m 358 849 b 378 681 372 794 375 738 b 392 375 381 643 390 413 b 394 331 393 360 393 344 b 339 329 369 331 346 331 b 193 304 289 325 242 317 b 168 297 185 303 176 300 b 358 849 199 457 269 713 z "},"B":{"ha":818,"x_min":0,"x_max":0,"o":"m 665 132 b 668 221 676 160 676 193 b 410 388 640 326 503 367 b 788 728 533 461 736 583 b 792 815 796 756 797 786 b 506 988 772 935 613 988 b 58 833 350 988 182 922 b 17 790 42 822 24 810 b 40 736 6 768 18 743 b 57 731 43 735 54 731 b 104 765 79 725 103 742 b 197 806 135 779 165 793 b 207 810 200 807 204 808 b 193 714 201 771 196 729 b 158 385 179 604 165 494 b 156 310 138 361 140 331 b 160 251 156 290 157 271 b 233 110 164 190 183 146 b 258 101 242 104 250 101 b 292 169 290 101 315 139 b 281 192 288 176 282 183 b 279 293 276 225 278 260 b 431 278 331 296 382 290 b 539 232 469 268 508 254 b 571 174 557 219 578 193 b 406 78 554 129 444 89 b 229 50 349 63 289 51 b 222 -40 175 47 169 -31 b 297 -47 247 -44 272 -47 b 665 132 410 -47 619 13 z m 307 604 b 318 804 311 671 318 738 b 317 840 318 817 318 829 b 474 860 368 853 421 860 b 663 792 519 860 646 846 b 610 697 669 765 629 718 b 293 458 533 613 397 515 b 307 604 299 522 306 586 z "},"C":{"ha":710,"x_min":0,"x_max":0,"o":"m 624 192 b 685 279 633 203 678 267 b 642 351 704 315 675 351 b 614 342 633 351 624 349 b 510 249 600 331 524 260 b 314 138 469 218 368 138 b 211 286 253 138 219 238 b 224 576 193 382 204 482 b 390 901 244 675 297 846 b 439 918 400 908 428 922 b 465 885 447 917 460 892 b 500 776 475 869 496 794 b 544 726 503 754 519 726 b 578 788 572 726 597 757 b 574 803 575 792 574 799 b 547 963 576 857 572 914 b 482 1031 533 990 511 1017 b 422 1042 464 1038 443 1042 b 143 786 296 1042 192 886 b 50 442 92 679 60 560 b 69 206 44 363 47 282 b 310 -15 103 93 182 -15 b 624 192 435 -15 551 99 z "},"D":{"ha":824,"x_min":0,"x_max":0,"o":"m 535 161 b 772 507 633 251 732 379 b 788 681 789 563 796 624 b 511 971 769 817 640 940 b 388 986 471 981 429 986 b 31 878 308 986 88 940 b 63 810 8 851 29 810 b 99 817 72 810 90 811 l 101 817 b 158 829 121 821 139 825 b 126 572 143 744 131 658 b 128 342 124 496 122 419 b 221 83 132 260 149 138 b 211 76 217 81 213 78 b 243 -18 169 44 196 -18 b 535 161 325 -18 476 108 z m 289 139 b 279 178 285 144 281 171 b 265 326 274 199 267 304 b 274 796 254 482 265 639 b 276 850 274 814 275 832 b 372 858 307 854 340 858 b 647 719 479 858 596 821 b 664 582 668 678 674 626 b 290 136 629 410 421 238 z "},"E":{"ha":649,"x_min":0,"x_max":0,"o":"m 617 143 b 588 213 644 171 619 213 b 565 206 581 213 572 211 b 504 172 546 193 526 181 b 331 138 468 160 389 138 b 279 149 310 138 292 142 b 238 253 256 163 242 226 b 242 453 229 319 235 386 b 372 483 286 457 331 469 b 356 578 428 500 413 581 b 256 565 322 576 289 571 b 279 799 267 643 278 721 b 276 844 279 814 278 829 b 378 851 321 847 364 850 b 485 853 413 853 449 854 b 567 864 497 853 554 861 b 575 953 611 874 618 936 b 463 978 540 968 501 978 b 129 925 350 978 238 954 b 110 931 122 928 117 931 b 68 900 92 931 75 918 b 94 844 58 876 71 853 b 158 840 104 842 147 840 b 97 515 131 735 113 624 b 78 511 89 513 82 511 b 78 435 31 506 32 439 l 88 435 b 106 150 79 339 76 240 b 304 0 132 54 204 0 b 617 143 410 0 543 69 z "},"F":{"ha":617,"x_min":0,"x_max":0,"o":"m 283 38 b 278 67 283 47 281 57 b 261 182 275 82 263 165 b 257 501 249 288 250 394 b 364 507 292 501 328 503 b 432 517 372 507 422 517 b 431 606 486 522 486 603 b 400 608 426 606 404 608 b 264 599 354 610 308 606 b 275 750 268 660 274 732 b 279 853 276 785 279 819 b 515 889 358 861 438 875 b 560 896 524 890 551 899 b 601 971 604 883 635 940 b 522 997 581 990 550 994 b 410 994 506 1000 426 996 b 329 985 383 992 356 989 b 142 946 267 974 204 956 b 107 963 133 957 119 964 b 40 890 65 960 26 929 b 90 851 49 871 69 857 b 161 847 113 846 138 846 b 129 644 150 785 133 671 b 122 579 128 622 125 601 b 107 578 118 579 113 578 b 86 585 100 582 93 585 b 65 511 53 585 32 536 b 114 500 74 504 93 501 b 126 171 104 389 101 278 b 238 -8 136 128 179 -8 b 283 38 260 -8 283 11 z "},"G":{"ha":785,"x_min":0,"x_max":0,"o":"m 631 124 b 753 301 683 172 732 232 b 757 407 764 335 768 374 b 615 515 736 468 675 501 b 499 525 578 525 538 529 b 499 433 444 518 444 439 b 653 375 529 429 644 411 b 633 321 654 363 640 332 b 388 151 590 249 478 151 b 247 239 326 151 278 189 b 201 393 218 283 207 340 b 222 642 193 476 201 561 b 415 885 244 724 311 885 b 442 881 425 885 433 883 b 500 715 485 867 488 758 b 539 688 506 697 522 688 b 592 760 581 688 588 726 b 557 926 601 817 588 879 b 410 999 526 979 467 999 b 108 749 253 999 165 882 b 50 364 58 629 36 493 b 376 10 69 188 182 10 b 631 124 476 10 557 57 z "},"H":{"ha":744,"x_min":0,"x_max":0,"o":"m 247 90 b 225 113 238 94 228 103 b 213 214 217 146 215 179 b 210 432 210 243 210 331 b 413 411 276 418 344 411 b 510 414 444 411 478 411 l 510 411 b 526 181 506 333 507 256 b 626 50 536 139 574 50 b 667 111 656 50 679 81 b 651 213 661 126 653 196 b 650 369 650 232 650 349 b 664 615 650 451 657 533 b 676 788 665 638 676 765 b 674 888 676 821 679 854 b 671 901 672 892 671 896 b 619 949 667 929 644 949 b 597 943 613 949 604 947 b 574 913 586 936 578 924 b 556 813 568 899 558 826 b 518 533 540 719 528 626 b 242 519 426 533 333 522 b 210 519 231 519 221 518 b 210 846 210 661 211 806 b 197 931 208 875 206 904 b 171 967 192 944 183 958 b 143 976 163 974 153 976 b 101 926 117 976 93 954 b 100 914 103 924 100 917 b 85 794 93 875 89 835 b 74 317 72 636 64 475 b 111 90 79 240 81 160 b 222 10 132 42 172 17 b 247 90 274 -1 296 71 z "},"I":{"ha":385,"x_min":0,"x_max":0,"o":"m 226 -3 b 319 7 257 -3 289 0 b 314 89 368 17 363 86 b 242 88 290 90 267 90 b 238 118 240 97 239 108 b 232 301 229 179 231 240 b 267 836 236 481 268 658 b 265 894 267 856 267 875 b 313 896 281 893 297 893 b 321 986 364 901 369 972 b 263 996 303 992 281 996 b 126 983 231 996 146 985 b 83 954 110 982 90 971 b 132 904 72 924 101 894 b 151 903 136 904 143 904 b 129 746 142 851 132 769 b 90 317 111 603 94 460 b 100 189 89 274 92 231 b 135 79 107 151 118 114 b 81 81 117 79 99 79 b 61 7 38 85 22 25 b 132 1 72 3 119 1 b 182 -3 138 1 176 -1 l 190 -3 b 226 -3 201 -8 215 -8 z "},"J":{"ha":733,"x_min":0,"x_max":0,"o":"m 604 339 b 578 836 604 406 586 768 b 575 854 576 842 576 847 b 697 894 619 864 678 879 b 679 985 731 919 721 974 b 647 989 669 988 658 989 b 310 932 533 988 419 961 b 282 924 306 931 286 924 b 253 849 243 924 224 875 b 294 836 264 838 281 838 b 444 838 344 832 394 833 l 444 832 b 454 281 431 649 454 465 b 413 101 454 238 451 132 b 358 86 397 90 379 86 b 122 222 276 86 171 156 b 93 275 111 239 101 257 b 54 300 85 292 69 300 b 10 263 33 300 13 286 b 47 161 7 240 36 181 b 381 -44 114 51 247 -44 b 604 339 578 -44 604 189 z "},"K":{"ha":663,"x_min":0,"x_max":0,"o":"m 233 58 b 231 71 232 60 231 68 b 222 138 231 79 224 129 b 213 297 217 190 214 244 b 349 282 258 292 304 288 b 476 250 392 276 438 269 b 554 219 501 239 526 225 b 610 251 579 214 603 229 b 592 321 618 275 607 301 b 504 392 569 350 539 375 b 275 442 433 424 353 431 b 465 631 336 507 400 569 b 625 789 490 654 607 758 b 589 861 644 821 625 861 b 496 808 553 858 524 831 b 213 558 394 735 301 646 b 206 747 211 622 210 685 b 188 900 201 799 197 850 b 169 953 185 908 174 946 b 135 976 163 969 149 976 b 99 926 113 976 89 956 b 106 903 100 918 104 911 b 97 826 106 878 100 851 b 71 351 76 669 69 510 b 101 74 72 258 72 161 b 118 33 106 60 111 46 b 150 -4 128 21 136 6 b 186 -15 161 -12 174 -15 b 233 58 226 -15 261 22 z "},"L":{"ha":642,"x_min":0,"x_max":0,"o":"m 542 89 b 618 133 551 94 608 128 b 597 210 656 157 635 210 b 579 206 592 210 586 208 b 290 83 540 188 332 96 b 247 76 282 81 256 72 b 236 96 243 79 238 92 b 204 211 218 132 210 172 b 218 707 183 375 210 542 b 183 935 222 764 228 899 b 151 946 174 943 163 946 b 108 917 133 946 115 936 b 97 836 99 890 99 863 b 78 642 96 813 79 667 b 67 340 69 542 65 442 b 246 -40 71 224 81 -40 b 542 89 324 -40 475 49 z "},"M":{"ha":921,"x_min":0,"x_max":0,"o":"m 824 29 b 826 54 825 38 824 46 b 843 371 839 101 842 322 b 839 811 844 518 850 664 b 721 971 833 882 807 971 b 571 849 653 971 601 901 b 376 433 490 719 443 571 b 328 856 363 574 357 717 b 251 942 318 897 303 942 b 131 753 181 942 143 807 b 56 268 90 594 58 432 b 63 106 54 214 60 160 b 64 17 64 92 60 31 b 100 -8 71 0 85 -8 b 139 26 118 -8 136 4 b 139 107 140 36 139 97 b 213 672 150 300 161 485 b 254 322 225 556 225 436 b 354 226 265 274 300 226 b 451 308 403 226 432 268 b 625 697 513 436 561 569 b 706 826 647 743 674 788 b 700 628 711 761 704 694 b 683 238 692 497 685 368 b 704 60 683 178 683 115 b 775 -15 715 31 739 -15 b 824 29 799 -15 822 1 z "},"N":{"ha":801,"x_min":0,"x_max":0,"o":"m 697 51 b 701 93 696 58 701 88 b 708 232 703 110 707 214 b 728 544 710 271 726 506 b 725 819 732 636 738 728 b 704 893 722 844 718 871 b 611 933 685 926 649 943 b 300 414 461 903 340 536 b 217 175 274 335 250 253 b 217 394 210 249 214 322 b 242 675 219 489 229 582 b 264 892 251 746 264 818 b 200 985 261 933 251 985 b 135 925 169 985 139 961 l 135 922 b 103 758 128 901 106 781 b 64 278 76 600 57 439 b 163 14 68 196 79 58 b 196 6 174 8 185 6 b 267 47 225 6 251 21 b 292 101 275 64 285 82 b 450 554 347 250 389 406 b 604 818 476 621 543 775 b 606 807 607 822 606 811 b 561 249 615 621 567 436 b 565 139 560 213 561 175 b 599 35 569 103 578 64 b 651 -3 611 15 626 -3 b 697 51 679 -3 701 21 z "},"O":{"ha":806,"x_min":0,"x_max":0,"o":"m 753 511 b 761 724 767 581 774 654 b 575 890 744 828 679 890 b 528 886 560 890 543 889 b 519 892 525 885 522 889 b 489 925 508 901 501 915 b 347 985 457 954 389 985 b 158 844 263 985 197 913 b 43 433 85 722 43 575 b 336 57 43 265 146 57 b 753 511 549 57 717 328 z m 215 294 b 190 551 176 371 178 467 b 354 875 204 643 269 836 b 388 879 361 878 375 879 b 443 860 413 879 424 876 b 313 794 399 840 354 819 b 349 718 271 767 301 703 b 488 767 365 724 471 761 b 572 783 515 775 544 783 b 650 706 628 783 643 756 b 631 492 663 635 650 561 b 403 201 597 378 518 249 b 351 192 388 194 369 192 b 215 294 286 192 243 239 z "},"P":{"ha":757,"x_min":0,"x_max":0,"o":"m 247 43 b 243 156 247 81 242 118 b 235 278 243 171 239 231 b 679 569 379 318 586 444 b 733 769 719 626 742 701 b 346 1024 710 957 510 1024 b 68 944 288 1024 100 1003 b 115 872 50 911 83 878 b 88 664 104 804 96 733 b 72 333 76 554 68 444 b 75 274 58 317 60 290 b 169 10 82 185 99 74 b 200 -1 178 1 189 -1 b 247 43 224 -1 246 17 z m 242 796 b 233 901 242 831 242 867 b 414 885 294 904 356 899 b 594 768 474 872 579 838 b 585 686 600 742 596 711 b 235 403 531 564 347 457 b 229 400 233 403 232 401 b 242 796 228 532 240 664 z "},"Q":{"ha":817,"x_min":0,"x_max":0,"o":"m 747 32 b 693 129 725 61 714 97 b 640 226 674 160 657 193 l 632 243 b 753 511 690 322 733 415 b 761 724 767 581 774 654 b 575 890 744 828 679 890 b 528 886 560 890 543 889 b 519 892 525 885 522 889 b 489 925 508 901 501 915 b 347 985 457 954 389 985 b 158 844 263 985 197 913 b 43 433 85 722 43 575 b 336 57 43 265 146 57 b 535 138 410 57 479 90 b 590 56 551 108 569 81 b 686 -25 617 22 654 3 b 714 -36 694 -33 704 -36 b 747 32 744 -36 771 0 z m 215 294 b 190 551 176 371 178 467 b 354 875 204 643 269 836 b 388 879 361 878 375 879 b 443 860 413 879 424 876 b 313 794 399 840 354 819 b 349 718 271 767 301 703 b 488 767 365 724 471 761 b 572 783 515 775 544 783 b 650 706 628 783 643 756 b 631 492 663 635 650 561 b 574 361 617 446 599 401 b 479 531 544 419 514 476 b 449 574 469 544 458 558 b 410 597 438 590 424 597 b 378 535 381 597 357 568 b 392 492 381 528 389 497 b 481 249 415 408 446 328 b 351 192 444 219 399 192 b 215 294 286 192 243 239 z "},"R":{"ha":854,"x_min":0,"x_max":0,"o":"m 328 92 b 324 124 325 97 325 118 l 324 131 b 593 150 413 143 503 150 b 721 146 636 150 678 149 b 761 142 728 144 754 144 b 785 135 769 138 776 135 b 824 194 813 135 836 164 b 631 267 803 247 688 263 b 443 271 568 274 506 274 b 768 724 581 372 742 547 b 743 871 774 772 767 828 b 490 996 690 967 594 996 b 69 892 367 996 178 956 b 22 856 53 882 35 872 b 60 789 0 828 24 786 b 63 788 61 789 60 789 b 103 804 78 785 93 790 b 207 836 138 818 172 828 b 167 376 178 718 169 501 b 168 233 165 328 164 281 b 189 113 115 208 121 124 l 194 113 b 218 72 201 97 208 85 b 276 28 232 51 253 35 b 328 92 315 14 349 57 z m 331 631 b 328 804 332 689 333 747 b 314 856 325 822 322 840 b 464 868 353 861 408 868 b 633 818 535 868 604 857 b 642 696 657 785 653 735 b 319 308 601 547 446 397 b 331 631 321 415 328 524 z "},"S":{"ha":776,"x_min":0,"x_max":0,"o":"m 731 163 b 731 304 749 210 749 257 b 642 422 714 350 679 390 b 450 538 585 471 515 504 b 151 697 399 564 189 653 b 156 715 149 701 154 710 b 189 764 163 733 176 749 b 461 897 249 826 372 897 b 571 864 497 897 554 889 b 596 821 575 856 594 829 b 632 789 599 799 615 789 b 672 831 653 789 674 803 b 674 842 671 832 674 840 b 647 939 675 875 667 913 b 467 1018 606 994 533 1018 b 31 750 322 1018 92 892 b 22 654 17 721 13 685 b 239 486 51 572 165 519 b 413 407 297 460 356 435 b 596 288 471 381 556 340 b 618 221 610 269 621 244 b 475 135 607 157 531 135 b 368 153 439 135 401 140 b 306 194 356 160 314 182 b 268 215 297 208 282 215 b 225 186 250 215 232 206 b 233 135 219 171 224 150 b 479 10 285 51 383 10 b 731 163 583 10 692 61 z "},"T":{"ha":653,"x_min":0,"x_max":0,"o":"m 390 85 b 388 101 389 88 388 99 b 367 564 360 254 357 410 b 385 836 369 599 383 767 b 551 860 440 842 496 849 b 633 889 579 865 608 874 b 624 967 663 910 657 954 b 557 976 603 975 579 976 b 374 965 496 976 435 971 b 88 933 335 963 128 932 b 50 951 79 946 65 951 b 6 926 32 951 14 943 b 39 851 -8 900 14 868 b 97 831 56 839 78 833 b 243 826 146 825 194 825 b 257 828 249 828 253 828 l 257 826 b 211 488 228 715 217 601 b 233 185 206 386 204 282 b 350 19 247 139 288 19 b 390 85 383 19 406 54 z "},"U":{"ha":707,"x_min":0,"x_max":0,"o":"m 626 403 b 654 746 646 515 656 631 b 633 914 654 803 651 861 b 597 942 628 933 613 942 b 558 899 576 942 556 926 b 564 854 558 893 563 860 b 568 747 568 819 569 783 b 389 114 568 549 538 263 b 342 89 378 104 357 89 b 238 299 275 89 246 254 b 228 764 213 451 219 610 b 229 875 229 801 231 839 b 160 963 229 917 208 963 b 79 844 99 963 83 893 b 69 417 60 703 56 558 b 258 -7 81 276 117 64 b 332 -26 282 -19 307 -26 b 626 403 507 -26 601 269 z "},"V":{"ha":664,"x_min":0,"x_max":0,"o":"m 442 54 b 592 664 479 138 574 574 b 625 851 606 726 619 789 b 628 981 629 894 633 939 b 588 1017 625 1004 606 1017 b 547 988 571 1017 554 1007 b 499 782 539 961 504 810 b 369 204 461 588 425 393 b 342 126 361 178 351 153 b 278 281 308 169 292 226 b 211 679 243 411 231 546 b 174 911 206 714 186 878 b 168 928 171 917 169 922 b 115 963 157 950 136 963 b 74 942 100 963 85 957 b 63 624 35 886 57 690 b 276 3 79 447 118 118 b 347 -24 297 -11 322 -24 b 442 54 393 -24 426 14 z "},"W":{"ha":1044,"x_min":0,"x_max":0,"o":"m 306 33 b 356 125 328 60 342 93 b 506 482 406 244 451 365 b 607 132 528 363 546 238 b 688 46 626 99 653 65 b 751 31 707 36 729 29 b 918 151 822 31 885 94 b 992 413 964 229 983 322 b 976 686 999 503 996 597 b 779 917 953 793 885 882 b 765 919 775 918 769 919 b 738 849 731 919 710 875 b 768 824 747 839 758 832 b 882 568 857 739 875 694 b 867 321 886 485 883 401 b 778 151 856 258 829 192 b 757 142 771 147 764 143 b 714 179 739 136 722 164 b 638 408 674 249 653 329 b 606 582 625 465 619 525 b 521 671 593 625 574 671 b 382 503 450 671 404 558 b 264 203 342 403 307 301 b 249 169 261 197 250 174 b 228 349 235 228 232 288 b 217 558 224 418 219 489 b 208 803 217 589 211 772 b 142 924 207 846 200 924 b 76 853 110 924 78 894 b 75 847 76 851 76 849 b 67 763 71 819 68 790 b 69 433 63 653 63 543 b 164 32 74 329 88 113 b 178 21 165 31 176 22 b 235 -3 192 6 214 -3 b 306 33 263 -3 288 13 z "},"X":{"ha":764,"x_min":0,"x_max":0,"o":"m 167 11 b 174 18 169 14 171 17 b 213 60 190 28 201 44 b 318 215 226 79 306 196 b 386 322 329 233 354 272 b 583 42 453 221 551 75 b 669 -3 604 21 639 -3 b 704 85 715 -3 744 53 b 686 121 699 89 689 114 b 633 204 679 131 640 194 b 471 456 579 289 526 374 b 654 750 549 582 632 714 b 711 838 672 779 689 810 b 713 917 751 846 751 901 b 682 919 703 921 692 922 b 639 886 664 914 650 900 b 401 554 603 844 497 694 b 172 844 329 654 254 751 b 107 914 165 853 117 906 b 71 963 114 940 96 963 b 29 946 57 963 40 954 b 17 896 17 933 13 913 b 106 746 24 869 90 769 b 315 431 174 640 246 536 b 225 293 274 368 240 317 b 107 100 210 267 119 128 b 93 56 100 86 99 71 b 135 -4 81 24 107 -4 b 167 11 146 -4 157 0 z "},"Y":{"ha":603,"x_min":0,"x_max":0,"o":"m 372 85 b 353 208 375 126 361 167 b 318 399 347 232 331 332 b 325 403 319 400 322 401 b 514 679 410 458 474 590 b 581 846 539 733 565 788 b 586 919 588 869 588 896 b 546 957 585 943 565 957 b 511 935 532 957 518 950 b 335 585 453 818 406 694 b 282 518 319 561 301 538 b 261 506 275 511 268 500 b 204 640 238 524 213 613 b 147 864 197 668 156 838 b 99 969 138 901 128 944 b 69 982 90 978 79 982 b 25 943 49 982 28 967 b 85 599 19 883 68 654 b 219 394 107 521 138 428 b 229 133 215 307 214 219 b 322 11 238 90 268 11 b 372 85 367 11 372 50 z "},"Z":{"ha":675,"x_min":0,"x_max":0,"o":"m 510 56 b 619 72 524 57 606 69 b 617 158 667 83 664 150 b 463 171 567 168 514 171 b 306 167 410 171 358 168 b 222 164 279 165 250 164 b 149 169 197 164 174 165 b 226 296 168 215 199 256 b 542 694 325 435 439 561 b 601 785 564 724 586 753 b 614 849 611 804 617 826 b 576 906 611 871 594 893 b 354 947 521 939 419 947 b 139 922 306 947 174 936 b 136 853 108 910 108 869 b 178 842 149 844 164 843 b 326 836 228 836 278 839 b 476 811 376 832 426 824 b 35 214 413 724 79 313 b 21 136 24 190 17 163 b 244 38 35 39 168 38 b 510 56 329 38 426 40 z "},"^":{"ha":331,"x_min":0,"x_max":0,"o":"m 296 788 b 239 910 289 807 250 893 b 196 933 228 925 213 933 b 151 915 179 933 165 925 b 42 815 135 901 56 831 b 69 749 15 788 40 749 b 96 760 78 749 88 753 b 183 835 107 768 172 825 b 236 740 192 817 219 753 b 258 733 243 735 251 733 b 296 788 285 733 307 758 z "},"ˆ":{"ha":331,"x_min":0,"x_max":0,"o":"m 296 788 b 239 910 289 807 250 893 b 196 933 228 925 213 933 b 151 915 179 933 165 925 b 42 815 135 901 56 831 b 69 749 15 788 40 749 b 96 760 78 749 88 753 b 183 835 107 768 172 825 b 236 740 192 817 219 753 b 258 733 243 735 251 733 b 296 788 285 733 307 758 z "},"_":{"ha":599,"x_min":0,"x_max":0,"o":"m 560 -203 b 563 -124 610 -201 613 -129 b 433 -114 546 -121 450 -115 b 228 -108 365 -110 296 -108 b 124 -110 193 -108 158 -108 b 44 -114 111 -110 57 -110 b 25 -187 -1 -108 -18 -171 b 58 -196 29 -189 53 -196 b 225 -203 113 -200 169 -201 b 560 -203 268 -206 515 -206 z "},"`":{"ha":200,"x_min":0,"x_max":0,"o":"m 156 828 b 107 876 146 835 113 865 b 74 897 99 892 86 897 b 35 835 46 897 18 868 b 133 754 47 810 101 754 b 156 828 167 754 190 803 z "},"a":{"ha":568,"x_min":0,"x_max":0,"o":"m 263 192 b 375 379 311 247 344 314 b 496 182 385 322 421 182 b 540 240 525 182 549 210 b 501 421 526 300 510 360 b 485 589 493 476 494 533 b 432 640 481 615 457 638 b 313 746 421 700 371 746 b 44 413 174 746 79 529 b 28 282 32 371 24 326 b 160 139 35 207 88 139 b 263 192 200 139 239 161 z m 156 343 b 313 615 175 419 242 571 b 329 619 317 617 326 622 b 353 575 338 614 349 583 b 351 565 354 572 353 568 b 331 525 344 553 338 539 b 322 513 331 524 324 514 b 193 299 306 483 213 325 b 164 265 185 286 175 274 b 156 343 146 285 150 318 z "},"b":{"ha":658,"x_min":0,"x_max":0,"o":"m 218 4 b 243 117 226 19 240 99 b 306 104 263 108 283 104 b 576 283 411 104 525 196 b 626 457 607 335 625 397 b 497 703 626 535 603 703 b 193 279 326 703 226 418 b 210 747 189 435 204 592 b 199 960 211 788 219 925 b 147 993 188 981 168 993 b 100 961 124 993 113 979 b 76 817 86 939 78 843 b 68 394 65 676 63 535 b 89 119 69 356 82 157 b 94 103 90 114 94 108 b 126 13 103 72 111 40 b 175 -25 136 -8 150 -25 b 218 4 193 -25 210 -14 z m 290 207 b 261 214 281 207 271 210 b 454 599 286 325 346 536 b 492 610 465 606 478 610 b 508 556 501 594 506 574 b 478 340 521 483 514 403 b 382 238 454 300 419 264 b 290 207 356 219 322 204 z "},"c":{"ha":483,"x_min":0,"x_max":0,"o":"m 357 186 b 442 228 386 199 414 214 b 408 308 489 253 460 325 b 290 281 369 296 331 281 b 182 365 239 281 193 314 b 225 531 171 421 190 486 b 300 594 244 557 272 576 b 303 549 303 581 303 564 b 342 513 304 525 324 513 b 381 549 361 513 379 525 b 381 578 381 553 379 575 b 381 643 381 600 386 622 b 289 715 369 689 335 715 b 106 614 218 715 149 665 b 32 350 46 544 17 440 b 247 160 50 242 136 160 b 357 186 285 160 324 169 z "},"d":{"ha":675,"x_min":0,"x_max":0,"o":"m 571 -271 b 546 -207 588 -247 575 -214 b 532 103 536 -104 532 0 b 546 404 531 204 538 304 b 642 942 558 585 588 767 b 656 990 646 957 653 974 b 600 1056 661 1028 632 1056 b 567 1044 589 1056 576 1051 b 531 976 546 1029 539 1001 b 467 747 504 901 485 825 b 447 686 463 726 456 706 b 365 710 425 703 396 710 b 46 374 226 710 90 490 b 29 239 31 332 22 283 b 175 111 42 167 101 111 b 400 301 285 111 354 215 b 397 -1 392 201 390 99 b 443 -256 403 -87 413 -176 b 511 -311 454 -286 482 -311 b 571 -271 538 -311 557 -292 z m 175 249 b 167 289 167 256 165 278 b 361 581 181 367 289 535 b 399 593 369 585 390 596 b 407 583 403 592 407 585 b 197 251 374 503 278 285 b 175 249 192 250 181 246 z "},"e":{"ha":503,"x_min":0,"x_max":0,"o":"m 308 150 b 456 192 358 154 407 174 b 435 274 506 208 486 282 b 322 264 399 268 360 264 b 158 329 265 264 176 281 b 150 376 151 344 150 360 b 257 408 188 375 225 390 b 346 474 290 425 321 446 b 369 707 413 543 451 658 b 306 724 350 718 328 724 b 40 464 169 724 71 583 b 56 258 22 397 21 317 b 139 182 75 226 106 199 b 308 150 190 156 251 144 z m 296 596 b 178 481 274 542 226 508 b 296 596 204 532 238 581 z "},"f":{"ha":411,"x_min":0,"x_max":0,"o":"m 249 -57 b 226 42 264 -18 267 31 b 226 400 213 160 215 281 b 350 421 268 401 310 408 b 335 513 400 438 388 513 b 236 507 301 513 269 510 b 297 846 249 621 265 736 b 308 835 301 843 306 839 b 339 819 317 824 328 819 b 371 881 367 819 392 850 b 347 951 369 893 351 940 b 278 1003 335 981 310 1003 b 188 925 228 1003 207 964 b 114 631 144 833 128 731 b 100 515 108 592 104 554 b 68 510 89 518 78 517 b 54 500 67 510 57 500 b 57 415 19 482 22 431 b 90 408 63 413 76 410 b 88 368 89 394 89 382 b 90 100 82 279 79 189 b 194 -96 97 44 118 -96 b 249 -57 218 -96 240 -81 z "},"g":{"ha":533,"x_min":0,"x_max":0,"o":"m 461 110 b 478 431 474 215 476 324 b 479 665 478 460 481 636 b 479 688 479 668 478 683 b 408 767 483 732 449 767 b 378 760 399 767 388 764 b 290 781 351 774 321 781 b 63 564 179 781 99 654 b 32 376 39 504 29 440 b 172 200 38 292 72 200 b 322 308 243 200 288 253 b 297 33 318 217 315 124 b 250 -82 292 6 275 -67 b 171 -24 218 -76 193 -49 b 138 -8 161 -12 150 -8 b 101 -78 107 -8 78 -43 b 186 -185 128 -115 149 -158 b 261 -208 208 -200 235 -208 b 461 110 407 -208 447 0 z m 251 600 b 308 657 267 622 285 644 b 329 664 315 660 322 663 b 332 660 332 665 332 663 b 324 629 332 654 325 633 b 193 365 307 575 238 404 b 251 600 181 444 206 533 z "},"h":{"ha":593,"x_min":0,"x_max":0,"o":"m 239 119 b 274 208 256 146 264 178 b 417 543 311 322 358 438 b 435 404 426 497 432 451 b 439 318 435 394 438 328 b 497 242 442 282 454 242 b 549 278 518 242 539 256 b 558 397 563 315 561 358 b 433 708 556 472 540 708 b 321 611 379 708 343 653 b 207 353 275 529 239 442 b 208 647 201 451 203 550 b 219 881 213 725 221 803 b 164 963 219 915 207 963 b 119 936 147 963 129 953 b 83 804 97 896 92 849 b 82 189 50 601 40 390 b 117 110 85 174 106 122 b 178 81 132 93 156 81 b 239 119 204 81 226 97 z "},"i":{"ha":207,"x_min":0,"x_max":0,"o":"m 157 781 b 149 804 156 789 153 796 b 150 825 146 810 147 819 b 117 882 164 853 143 882 b 101 879 111 882 107 882 b 82 874 100 878 85 875 b 58 853 72 869 65 861 b 46 774 40 828 36 801 b 111 719 56 751 85 719 b 157 781 140 719 167 747 z m 165 264 b 160 378 161 272 160 367 b 156 556 158 404 161 531 b 107 593 150 579 129 593 b 51 531 71 593 58 560 b 36 374 40 479 35 426 b 108 203 38 311 40 229 b 125 200 114 200 119 200 b 165 264 157 200 181 233 z "},"j":{"ha":274,"x_min":0,"x_max":0,"o":"m 174 835 b 174 956 174 853 178 939 b 121 996 167 982 144 996 b 75 967 103 996 85 986 b 60 896 71 956 60 907 b 71 794 56 863 58 826 b 119 761 79 772 99 761 b 174 835 163 761 174 799 z m 210 58 b 210 457 226 190 222 325 b 188 581 206 499 203 542 b 163 614 182 593 175 607 b 133 624 154 621 144 624 b 78 571 101 624 86 599 b 68 243 64 521 68 293 b 71 43 67 176 72 110 b 43 -142 69 -19 63 -82 b 71 -221 13 -168 31 -217 b 75 -221 72 -221 74 -221 b 210 58 165 -221 203 -4 z "},"k":{"ha":558,"x_min":0,"x_max":0,"o":"m 210 101 b 203 244 208 119 204 228 l 199 307 b 222 310 210 308 219 310 b 429 328 292 314 360 319 b 496 339 438 329 486 339 b 506 428 550 339 558 417 b 483 435 503 429 486 433 b 360 449 443 444 401 446 b 421 519 382 471 404 493 b 440 558 428 532 436 544 b 399 617 449 592 425 617 b 347 576 379 617 353 596 b 196 458 294 521 260 497 b 197 531 196 482 197 507 b 200 919 197 661 207 790 b 197 968 210 935 210 954 b 153 992 186 981 169 992 b 108 946 131 990 111 968 b 92 843 107 933 93 856 b 65 560 81 749 71 654 b 63 283 61 468 57 375 b 174 22 67 222 88 22 b 210 101 214 22 247 68 z "},"l":{"ha":294,"x_min":0,"x_max":0,"o":"m 210 60 b 203 143 208 61 203 138 b 200 361 199 215 196 289 b 233 831 207 518 229 674 b 224 936 235 865 236 903 l 224 939 b 181 978 222 964 201 978 b 144 954 167 978 151 971 b 124 904 136 939 128 922 b 96 721 113 843 104 782 b 65 469 83 638 72 553 b 67 136 56 358 42 244 b 167 -1 76 97 117 -1 b 210 60 196 -1 221 28 z "},"m":{"ha":708,"x_min":0,"x_max":0,"o":"m 194 258 b 285 433 210 281 274 408 b 315 349 289 403 296 371 b 357 332 328 338 342 332 b 410 358 376 332 396 342 b 439 404 421 372 431 389 b 544 583 474 464 506 526 b 547 472 549 546 547 508 b 556 307 546 417 542 360 b 574 268 560 293 564 279 b 594 249 579 261 588 256 b 624 238 603 242 613 238 b 669 279 646 238 667 254 b 674 303 671 288 672 294 b 669 340 674 315 669 328 b 661 596 668 425 676 513 b 611 703 653 635 642 678 b 565 721 597 713 582 721 b 497 682 539 719 514 703 b 393 514 454 632 424 572 b 365 624 390 551 390 594 b 315 647 353 639 335 647 b 238 590 278 647 256 619 b 158 436 208 540 183 489 b 165 685 157 519 163 603 b 167 700 167 688 165 697 b 122 753 172 732 147 753 b 71 700 90 753 79 725 b 35 406 44 604 33 504 b 43 294 35 368 36 331 b 124 210 54 253 72 210 b 194 258 156 210 178 232 z "},"n":{"ha":522,"x_min":0,"x_max":0,"o":"m 174 286 b 258 458 185 307 247 438 b 358 582 285 504 314 553 b 379 426 365 560 376 449 b 414 300 385 383 390 336 b 449 281 422 288 436 281 b 492 331 472 281 496 301 b 492 361 490 335 492 357 b 451 639 492 439 488 568 b 371 693 438 669 404 693 b 154 481 272 693 193 556 b 140 642 153 535 150 589 b 129 696 138 660 132 678 b 90 747 139 728 115 747 b 47 713 72 747 53 736 b 43 676 44 701 44 689 b 40 311 42 622 29 365 b 113 244 49 274 76 244 b 174 286 140 244 161 263 z "},"o":{"ha":493,"x_min":0,"x_max":0,"o":"m 389 304 b 425 592 467 386 508 514 b 263 646 388 629 314 646 b 221 643 249 646 235 646 b 176 667 211 660 194 667 b 31 439 99 667 42 501 b 33 325 22 401 24 361 b 197 206 57 250 118 206 b 389 304 271 206 340 251 z m 172 336 b 163 426 156 353 158 404 b 201 551 172 469 186 511 b 207 557 203 554 204 557 b 303 543 239 553 271 550 b 356 524 321 539 340 535 b 371 499 363 518 368 508 b 263 342 382 443 311 372 b 206 325 247 332 225 325 b 172 336 192 325 181 328 z "},"p":{"ha":506,"x_min":0,"x_max":0,"o":"m 256 -161 b 260 -143 258 -156 258 -149 b 243 -103 261 -128 256 -112 b 225 49 240 -83 226 31 b 211 171 219 90 215 131 b 463 413 331 193 422 303 b 474 561 481 460 486 514 b 229 713 446 669 331 713 b 164 704 207 713 185 710 b 138 713 157 710 147 713 b 78 635 99 713 85 665 b 49 294 44 525 42 408 b 165 -183 54 193 75 -137 l 174 -187 b 206 -197 183 -194 194 -197 b 256 -161 226 -197 249 -185 z m 189 500 l 189 588 b 190 597 189 590 190 593 b 229 589 194 596 225 590 b 333 531 261 582 321 567 b 324 453 343 507 333 478 b 199 300 300 393 256 335 b 189 500 194 367 190 433 z "},"q":{"ha":557,"x_min":0,"x_max":0,"o":"m 494 -144 b 482 -100 492 -131 486 -115 b 468 74 471 -43 468 15 b 482 369 467 172 475 271 b 507 614 488 451 500 532 b 511 667 507 621 510 660 b 504 742 515 692 518 721 b 450 774 493 763 471 774 b 415 761 438 774 425 769 b 385 711 400 749 393 729 b 296 785 365 747 342 785 b 79 596 200 785 114 675 b 31 415 54 539 35 478 b 56 293 26 374 32 328 b 154 239 79 258 115 239 b 358 436 247 239 318 365 b 344 150 347 340 344 246 b 378 -129 343 56 346 -42 b 461 -219 390 -162 424 -218 b 494 -144 499 -219 522 -175 z m 182 476 b 306 672 203 540 246 633 b 342 626 311 667 338 633 b 204 410 301 551 261 474 b 168 376 193 397 182 386 b 182 476 163 410 172 444 z "},"r":{"ha":428,"x_min":0,"x_max":0,"o":"m 174 265 b 218 392 181 282 213 376 b 321 576 244 457 276 522 b 374 614 331 588 358 614 b 381 704 425 618 432 693 b 333 713 365 708 349 713 b 171 557 257 713 203 615 b 151 704 167 606 161 656 b 108 746 149 725 131 746 b 64 707 88 746 69 728 b 44 576 58 689 47 594 b 35 328 42 542 32 363 b 49 264 38 306 38 282 b 111 226 61 239 86 226 b 174 265 136 226 161 239 z "},"s":{"ha":358,"x_min":0,"x_max":0,"o":"m 329 331 b 321 410 336 356 332 385 b 271 486 308 438 290 463 b 172 615 238 529 201 569 b 163 646 168 622 158 638 b 171 657 165 650 168 653 b 179 660 171 658 178 660 b 258 646 206 668 233 653 b 283 719 306 633 328 701 b 219 746 260 728 242 735 b 154 761 200 756 178 761 b 35 649 94 761 40 708 b 68 525 31 606 46 561 b 165 399 97 481 132 440 b 193 361 175 386 185 374 b 118 336 171 347 144 338 b 75 340 104 336 89 339 b 51 260 28 344 10 282 b 150 233 83 240 113 233 b 329 331 224 233 310 264 z "},"t":{"ha":378,"x_min":0,"x_max":0,"o":"m 281 171 b 250 467 276 207 256 410 b 318 481 272 471 308 478 b 308 571 369 493 361 569 b 242 569 286 571 264 571 b 235 689 239 608 236 649 b 236 860 232 746 233 803 b 242 925 238 882 239 904 b 210 997 267 951 246 993 b 203 997 207 997 206 997 b 136 885 160 997 147 931 b 110 558 113 779 107 668 b 74 557 97 558 86 557 b 32 490 35 568 4 521 b 57 471 39 482 47 475 b 113 465 67 468 88 465 b 171 133 115 381 124 208 b 200 106 178 122 188 113 b 239 92 211 99 226 92 b 281 171 278 92 307 135 z "},"u":{"ha":549,"x_min":0,"x_max":0,"o":"m 497 214 b 490 451 500 293 490 372 b 507 653 492 518 500 586 b 507 713 508 672 514 693 b 451 754 499 740 475 754 b 399 719 429 754 408 743 b 390 693 394 711 393 701 b 300 493 382 663 315 522 b 214 367 276 449 250 403 b 172 335 203 354 189 343 l 168 351 b 157 460 157 386 157 424 b 154 665 156 528 164 597 b 114 701 151 685 135 701 b 64 661 94 701 71 678 b 40 553 50 626 44 589 b 35 415 33 507 32 461 b 61 290 38 372 44 329 b 161 219 78 254 119 219 b 357 374 244 219 315 311 b 438 153 358 310 369 185 b 457 149 444 150 450 149 b 497 214 488 149 513 182 z "},"v":{"ha":439,"x_min":0,"x_max":0,"o":"m 247 249 b 342 365 290 274 319 321 b 410 688 390 464 414 578 b 351 793 410 726 403 793 b 310 728 318 793 288 763 b 217 369 310 621 289 456 b 163 536 190 422 175 479 b 128 661 158 557 140 643 b 85 685 118 678 101 685 b 42 661 68 685 51 678 b 51 422 14 615 39 474 b 197 240 68 356 113 240 b 247 249 213 240 233 242 z "},"w":{"ha":675,"x_min":0,"x_max":0,"o":"m 593 290 b 629 385 611 319 621 353 b 639 594 646 453 649 525 b 621 674 635 621 632 649 b 572 708 613 692 593 708 b 532 676 553 708 536 696 b 538 606 529 665 535 617 b 522 386 549 533 549 454 b 479 325 513 360 499 325 b 419 407 451 325 426 386 b 379 543 406 453 399 500 b 306 600 367 575 342 600 b 247 569 283 600 261 589 b 160 421 215 522 192 468 b 171 576 163 472 168 525 b 168 646 172 600 175 624 b 121 681 161 668 142 681 b 75 653 104 681 86 671 b 29 369 47 604 26 425 b 124 253 33 311 71 253 b 144 256 131 253 138 254 b 154 258 149 256 151 257 b 288 422 200 269 263 381 b 447 218 310 342 357 240 b 476 214 457 215 467 214 b 593 290 528 214 569 246 z "},"x":{"ha":513,"x_min":0,"x_max":0,"o":"m 89 160 b 239 338 119 181 217 308 b 257 361 242 342 249 350 b 353 285 288 333 319 308 b 439 254 376 267 407 256 b 476 328 476 254 499 296 b 460 357 475 331 463 353 b 414 403 447 374 431 389 b 335 471 406 411 367 443 b 449 628 383 539 433 610 b 481 672 469 631 483 651 b 481 674 479 674 481 674 b 438 724 485 703 463 724 b 407 711 426 724 417 719 b 368 663 401 706 374 669 b 328 617 363 656 333 622 b 261 536 317 604 292 574 b 224 574 249 549 236 560 b 144 681 206 592 149 656 b 150 690 143 683 149 688 b 119 754 174 718 149 754 b 93 742 111 754 101 750 b 69 708 83 732 78 719 b 85 581 47 679 69 613 b 182 438 110 529 143 481 b 129 369 157 406 138 381 b 25 207 113 344 35 236 b 65 151 17 178 39 151 b 89 160 74 151 82 154 z "},"y":{"ha":549,"x_min":0,"x_max":0,"o":"m 532 -115 b 489 -3 513 -78 497 -44 b 479 240 472 76 475 160 b 501 628 482 294 506 574 b 497 649 500 631 497 646 b 429 707 492 685 461 707 b 353 643 390 707 364 676 b 346 611 349 632 350 621 b 310 529 335 583 322 556 b 182 275 271 443 233 354 b 200 601 169 383 192 493 b 197 685 200 618 204 671 b 149 715 186 704 168 715 b 104 686 131 715 114 706 b 63 547 82 643 74 594 b 51 481 61 538 53 490 b 42 260 42 408 32 333 b 164 118 50 196 90 118 b 285 221 224 118 258 175 b 343 344 307 261 325 303 b 340 96 338 261 333 178 b 368 -37 343 50 353 6 b 497 -187 383 -78 449 -187 b 532 -115 533 -187 557 -146 z "},"z":{"ha":438,"x_min":0,"x_max":0,"o":"m 390 286 b 357 378 436 314 411 385 b 283 379 333 375 308 379 b 175 371 247 379 211 374 b 342 542 196 394 322 518 b 378 594 356 558 368 575 b 386 651 386 613 388 632 b 263 742 386 715 315 742 b 72 696 203 742 126 719 b 33 667 57 690 42 681 b 69 599 17 636 36 599 b 111 608 85 600 100 599 b 243 619 154 613 199 621 b 176 526 222 588 200 556 b 32 347 153 500 47 381 b 74 256 15 311 36 271 b 167 243 103 244 135 243 b 390 286 242 243 325 244 z "},"~":{"ha":650,"x_min":0,"x_max":0,"o":"m 610 639 b 568 685 613 667 590 685 b 531 660 553 685 539 676 b 496 589 519 636 511 610 b 438 551 482 572 458 551 b 372 617 408 551 382 594 b 326 757 353 663 344 711 b 242 824 311 796 278 824 b 151 771 204 824 176 796 b 47 622 129 746 56 654 b 40 578 43 607 36 592 b 81 547 44 560 60 547 b 135 586 103 547 129 565 b 217 661 144 596 206 653 b 356 456 243 583 278 496 b 435 433 379 442 407 433 b 610 639 543 433 601 543 z "}," ":{"ha":417,"x_min":0,"x_max":0,"o":""},"¡":{"ha":290,"x_min":0,"x_max":0,"o":"m 217 844 b 188 929 244 874 228 922 b 151 936 175 931 164 938 b 153 814 71 935 74 819 b 156 814 154 814 156 814 b 217 844 179 814 201 828 z m 221 -19 b 203 -12 218 -18 204 -15 b 196 47 197 -3 196 36 b 201 294 196 78 201 264 b 201 492 204 361 207 426 b 183 575 200 510 193 563 b 150 590 174 586 163 590 b 108 561 132 590 114 581 b 103 550 108 558 103 553 b 67 213 72 494 68 276 b 74 24 65 150 64 86 b 204 -104 86 -67 118 -99 b 221 -19 254 -106 268 -36 z "},"¨":{"ha":343,"x_min":0,"x_max":0,"o":"m 113 719 b 83 788 139 749 114 788 b 60 779 75 788 68 785 b 42 767 57 778 44 768 b 67 692 7 739 32 692 b 113 719 85 692 101 706 z m 285 696 b 285 771 329 701 329 765 b 260 697 236 779 214 715 b 285 696 267 693 276 694 z "},"«":{"ha":606,"x_min":0,"x_max":0,"o":"m 354 350 b 338 438 403 367 389 439 b 188 451 288 436 238 440 b 150 463 175 454 163 457 b 269 575 171 506 228 553 b 299 563 278 565 288 563 b 335 615 324 563 347 586 b 276 663 324 642 306 663 b 40 450 193 663 40 544 b 240 332 40 357 168 332 b 354 350 279 332 318 338 z m 531 528 b 475 538 511 531 493 533 b 544 582 496 556 521 568 b 528 656 583 601 564 656 b 378 540 492 656 389 572 b 406 476 369 517 383 489 b 525 453 422 468 504 453 b 531 528 571 453 578 521 z "},"­":{"ha":0,"x_min":0,"x_max":0,"o":""},"¯":{"ha":250,"x_min":0,"x_max":0,"o":"m 197 801 b 86 821 174 810 124 821 b 44 813 68 821 54 818 b 56 742 14 796 21 750 b 125 735 78 736 101 738 b 178 725 143 733 160 729 b 197 801 226 715 244 786 z "},"´":{"ha":238,"x_min":0,"x_max":0,"o":"m 101 758 b 163 836 110 771 151 826 b 188 851 169 843 179 847 b 171 924 225 872 207 924 b 38 801 124 924 61 838 b 69 742 18 771 43 742 b 101 758 81 742 93 747 z "},"¸":{"ha":238,"x_min":0,"x_max":0,"o":"m 110 -156 b 190 -29 129 -137 181 -54 b 193 57 200 -3 206 31 b 132 118 182 83 156 101 b 171 160 139 126 160 156 b 171 232 204 172 204 219 b 168 233 169 232 169 233 b 144 239 161 238 153 239 b 126 236 139 239 132 238 b 50 160 107 228 61 179 b 36 111 42 146 36 129 b 49 72 36 97 42 83 b 85 42 58 60 72 50 b 113 21 89 39 108 26 b 60 -85 111 0 71 -65 b 44 -111 54 -93 49 -101 b 83 -167 33 -140 57 -167 b 110 -156 92 -167 101 -164 z "},"»":{"ha":718,"x_min":0,"x_max":0,"o":"m 336 492 b 357 540 347 506 356 522 b 332 601 358 563 347 586 b 288 625 321 614 304 621 b 110 649 231 644 169 646 b 89 654 104 653 97 654 b 42 628 71 654 50 643 b 61 568 31 607 42 581 b 228 532 85 554 203 539 b 156 488 204 515 179 503 b 144 479 153 486 146 479 b 161 394 103 458 115 394 b 336 492 206 394 306 458 z m 363 371 b 583 442 421 376 532 417 b 675 538 624 461 664 494 b 658 615 682 565 676 593 b 585 665 639 639 611 653 b 426 724 533 688 479 706 b 386 735 415 735 400 739 l 383 735 b 364 657 346 728 333 679 b 389 644 371 651 381 649 b 579 557 419 633 554 576 b 479 501 568 533 504 510 b 332 449 454 493 351 464 b 363 371 299 421 321 368 z "},"¿":{"ha":483,"x_min":0,"x_max":0,"o":"m 288 -143 b 440 -79 314 -133 419 -96 b 457 -60 447 -74 451 -65 b 417 3 483 -31 454 14 l 411 3 b 335 -19 400 1 346 -17 b 188 -43 307 -31 217 -43 b 151 -40 175 -43 164 -42 b 307 172 167 -6 285 142 b 379 282 333 207 360 243 b 396 374 393 310 404 343 b 229 460 379 442 290 460 b 213 376 182 460 169 394 b 283 344 238 367 264 360 b 204 239 267 304 233 271 b 64 72 157 183 106 131 b 11 -37 39 39 18 3 b 24 -111 7 -62 11 -89 b 153 -168 50 -157 104 -168 b 288 -143 199 -168 246 -158 z m 261 638 l 264 638 b 308 736 310 639 322 694 b 289 776 303 750 297 764 b 249 799 279 792 263 799 b 199 751 224 799 200 781 b 206 699 197 735 200 717 b 213 679 207 696 213 683 b 261 638 208 651 235 629 z "},"À":{"ha":622,"x_min":0,"x_max":0,"o":"m 468 1136 b 382 1164 457 1140 393 1161 b 332 1175 365 1169 349 1179 b 332 1100 292 1165 292 1108 b 364 1079 338 1099 358 1082 b 454 1054 386 1065 428 1054 b 468 1136 500 1054 514 1119 z m 133 22 b 151 199 136 82 143 140 b 351 206 218 194 286 196 b 401 218 360 207 379 213 b 418 117 406 183 410 150 b 453 31 425 86 429 51 b 488 18 463 22 475 18 b 533 42 506 18 522 26 b 556 140 553 69 551 107 b 558 269 560 183 561 226 b 533 629 557 315 539 583 b 464 932 522 732 515 842 b 413 988 451 954 435 976 b 375 997 401 994 388 997 b 340 990 363 997 350 994 b 261 906 304 974 282 938 b 63 289 153 738 90 488 b 53 214 33 282 19 238 b 47 154 50 194 49 174 b 47 32 44 114 42 72 b 64 -19 49 14 53 -6 b 94 -36 72 -31 83 -36 b 133 22 119 -36 144 -10 z m 358 849 b 378 681 372 794 375 738 b 392 375 381 643 390 413 b 394 331 393 360 393 344 b 339 329 369 331 346 331 b 193 304 289 325 242 317 b 168 297 185 303 176 300 b 358 849 199 457 269 713 z "},"Á":{"ha":622,"x_min":0,"x_max":0,"o":"m 388 1076 b 517 1143 410 1079 494 1135 b 529 1206 542 1154 549 1186 b 483 1221 521 1214 499 1221 b 429 1204 465 1219 447 1211 b 353 1156 401 1190 375 1175 b 388 1076 319 1126 343 1072 z m 133 22 b 151 199 136 82 143 140 b 351 206 218 194 286 196 b 401 218 360 207 379 213 b 418 117 406 183 410 150 b 453 31 425 86 429 51 b 488 18 463 22 475 18 b 533 42 506 18 522 26 b 556 140 553 69 551 107 b 558 269 560 183 561 226 b 533 629 557 315 539 583 b 464 932 522 732 515 842 b 413 988 451 954 435 976 b 375 997 401 994 388 997 b 340 990 363 997 350 994 b 261 906 304 974 282 938 b 63 289 153 738 90 488 b 53 214 33 282 19 238 b 47 154 50 194 49 174 b 47 32 44 114 42 72 b 64 -19 49 14 53 -6 b 94 -36 72 -31 83 -36 b 133 22 119 -36 144 -10 z m 358 849 b 378 681 372 794 375 738 b 392 375 381 643 390 413 b 394 331 393 360 393 344 b 339 329 369 331 346 331 b 193 304 289 325 242 317 b 168 297 185 303 176 300 b 358 849 199 457 269 713 z "},"Â":{"ha":622,"x_min":0,"x_max":0,"o":"m 303 1050 b 414 1129 318 1060 399 1119 b 457 1071 428 1108 442 1089 b 489 1057 467 1061 478 1057 b 529 1115 517 1057 542 1085 b 418 1239 513 1157 472 1239 b 400 1236 413 1239 406 1239 b 253 1117 367 1228 276 1140 b 276 1042 221 1085 242 1042 b 303 1050 285 1042 293 1044 z m 133 22 b 151 199 136 82 143 140 b 351 206 218 194 286 196 b 401 218 360 207 379 213 b 418 117 406 183 410 150 b 453 31 425 86 429 51 b 488 18 463 22 475 18 b 533 42 506 18 522 26 b 556 140 553 69 551 107 b 558 269 560 183 561 226 b 533 629 557 315 539 583 b 464 932 522 732 515 842 b 413 988 451 954 435 976 b 375 997 401 994 388 997 b 340 990 363 997 350 994 b 261 906 304 974 282 938 b 63 289 153 738 90 488 b 53 214 33 282 19 238 b 47 154 50 194 49 174 b 47 32 44 114 42 72 b 64 -19 49 14 53 -6 b 94 -36 72 -31 83 -36 b 133 22 119 -36 144 -10 z m 358 849 b 378 681 372 794 375 738 b 392 375 381 643 390 413 b 394 331 393 360 393 344 b 339 329 369 331 346 331 b 193 304 289 325 242 317 b 168 297 185 303 176 300 b 358 849 199 457 269 713 z "},"Ã":{"ha":622,"x_min":0,"x_max":0,"o":"m 347 1097 b 369 1101 351 1099 364 1104 b 419 1072 388 1094 401 1081 b 451 1067 431 1068 440 1067 b 544 1153 493 1067 540 1113 b 501 1201 547 1183 524 1201 b 465 1167 483 1201 467 1190 b 451 1151 464 1161 456 1154 b 383 1192 429 1165 408 1183 b 361 1194 376 1193 368 1194 b 254 1136 322 1194 272 1172 b 281 1065 242 1110 253 1078 b 292 1058 282 1064 290 1058 b 310 1054 297 1056 303 1054 b 347 1097 331 1054 350 1074 z m 133 22 b 151 199 136 82 143 140 b 351 206 218 194 286 196 b 401 218 360 207 379 213 b 418 117 406 183 410 150 b 453 31 425 86 429 51 b 488 18 463 22 475 18 b 533 42 506 18 522 26 b 556 140 553 69 551 107 b 558 269 560 183 561 226 b 533 629 557 315 539 583 b 464 932 522 732 515 842 b 413 988 451 954 435 976 b 375 997 401 994 388 997 b 340 990 363 997 350 994 b 261 906 304 974 282 938 b 63 289 153 738 90 488 b 53 214 33 282 19 238 b 47 154 50 194 49 174 b 47 32 44 114 42 72 b 64 -19 49 14 53 -6 b 94 -36 72 -31 83 -36 b 133 22 119 -36 144 -10 z m 358 849 b 378 681 372 794 375 738 b 392 375 381 643 390 413 b 394 331 393 360 393 344 b 339 329 369 331 346 331 b 193 304 289 325 242 317 b 168 297 185 303 176 300 b 358 849 199 457 269 713 z "},"Ä":{"ha":624,"x_min":0,"x_max":0,"o":"m 133 22 b 151 199 136 82 143 140 b 351 206 218 194 286 196 b 401 218 360 207 379 213 b 418 117 406 183 410 150 b 453 31 425 86 429 51 b 488 18 463 22 475 18 b 533 42 506 18 522 26 b 556 140 553 69 551 107 b 558 269 560 183 561 226 b 533 629 557 315 539 583 b 464 932 522 732 515 842 b 413 988 451 954 435 976 b 375 997 401 994 388 997 b 340 990 363 997 350 994 b 261 906 304 974 282 938 b 63 289 153 738 90 488 b 53 214 33 282 19 238 b 47 154 50 194 49 174 b 47 32 44 114 42 72 b 64 -19 49 14 53 -6 b 94 -36 72 -31 83 -36 b 133 22 119 -36 144 -10 z m 339 1086 b 361 1101 342 1088 358 1100 b 328 1174 396 1128 371 1182 b 310 1178 322 1176 317 1178 b 271 1157 296 1178 279 1169 b 308 1076 243 1119 269 1076 b 339 1086 318 1076 328 1079 z m 563 1086 b 574 1117 569 1094 575 1106 l 574 1119 b 561 1156 576 1133 571 1146 b 535 1167 553 1164 543 1167 b 486 1106 507 1167 481 1139 b 526 1069 489 1082 507 1069 b 563 1086 539 1069 553 1075 z m 358 849 b 378 681 372 794 375 738 b 392 375 381 643 390 413 b 394 331 393 360 393 344 b 339 329 369 331 346 331 b 193 304 289 325 242 317 b 168 297 185 303 176 300 b 358 849 199 457 269 713 z "},"Å":{"ha":622,"x_min":0,"x_max":0,"o":"m 133 22 b 151 199 136 82 143 140 b 351 206 218 194 286 196 b 401 218 360 207 379 213 b 418 117 406 183 410 150 b 453 31 425 86 429 51 b 488 18 463 22 475 18 b 533 42 506 18 522 26 b 556 140 553 69 551 107 b 558 269 560 183 561 226 b 533 629 557 315 539 583 b 464 932 522 732 515 842 b 461 938 463 935 463 936 b 565 1115 514 972 558 1060 b 529 1207 568 1151 556 1185 b 457 1236 510 1224 483 1233 b 425 1250 450 1244 436 1250 b 308 1188 374 1244 333 1238 b 288 1092 293 1158 286 1125 b 321 979 290 1053 301 1011 b 261 906 296 960 278 932 b 63 289 153 738 90 488 b 53 214 33 282 19 238 b 47 154 50 194 49 174 b 47 32 44 114 42 72 b 64 -19 49 14 53 -6 b 94 -36 72 -31 83 -36 b 133 22 119 -36 144 -10 z m 376 1117 b 392 1163 378 1133 381 1151 b 431 1160 404 1160 417 1161 b 479 1138 444 1157 474 1151 b 461 1068 485 1122 468 1083 b 410 1008 453 1053 426 1014 b 376 1117 389 1026 375 1089 z m 358 849 b 378 681 372 794 375 738 b 392 375 381 643 390 413 b 394 331 393 360 393 344 b 339 329 369 331 346 331 b 193 304 289 325 242 317 b 168 297 185 303 176 300 b 358 849 199 457 269 713 z "},"Æ":{"ha":829,"x_min":0,"x_max":0,"o":"m 428 6 b 651 50 456 14 625 43 b 707 79 664 54 700 69 b 676 154 732 107 714 151 b 507 125 619 160 561 144 b 496 119 503 124 499 121 b 490 124 493 121 492 122 b 488 163 489 136 488 149 b 474 354 481 226 476 290 b 622 368 511 358 606 367 b 647 374 631 368 639 371 b 642 474 706 385 700 469 b 617 476 633 474 625 476 b 472 469 600 475 514 471 l 472 496 b 485 744 474 579 482 661 b 481 829 486 772 485 801 b 606 833 522 831 564 833 b 688 828 633 833 661 832 b 744 825 707 825 726 821 b 772 831 754 826 763 829 b 789 924 819 838 831 901 b 738 949 771 933 756 943 b 636 960 722 954 651 960 b 474 943 581 960 526 954 b 428 933 464 942 447 938 b 379 949 414 944 396 949 b 315 926 357 949 333 942 b 92 404 208 849 119 525 b 79 399 86 403 82 400 b 58 392 76 396 61 393 b 71 317 13 381 24 313 l 74 317 b 38 101 58 239 38 132 b 76 64 38 76 57 64 b 115 99 94 64 114 75 b 158 326 119 164 139 261 b 315 344 210 336 263 342 b 364 71 319 258 325 146 b 378 50 368 64 372 57 b 428 6 374 25 396 -4 z m 349 829 b 324 576 350 794 326 610 b 315 451 319 535 317 493 b 190 431 274 446 232 439 b 182 429 188 431 185 429 b 349 829 207 531 274 754 z "},"Ç":{"ha":710,"x_min":0,"x_max":0,"o":"m 424 -214 b 446 -129 453 -194 467 -158 b 393 -96 433 -112 413 -103 b 293 -68 361 -83 326 -78 b 311 -15 299 -50 304 -33 b 624 192 436 -15 551 99 b 685 279 633 203 678 267 b 642 351 704 315 675 351 b 614 342 633 351 624 349 b 510 249 600 331 524 260 b 314 138 469 218 368 138 b 211 286 253 138 219 238 b 224 576 193 382 204 482 b 390 901 244 675 297 846 b 439 918 400 908 428 922 b 465 885 447 917 460 892 b 500 776 475 869 496 794 b 544 726 503 754 519 726 b 578 788 572 726 597 757 b 574 803 575 792 574 799 b 547 963 576 857 572 914 b 482 1031 533 990 511 1017 b 422 1042 464 1038 443 1042 b 143 786 296 1042 192 886 b 50 442 92 679 60 560 b 69 206 44 363 47 282 b 224 3 94 122 143 42 b 203 -72 214 -21 206 -46 b 242 -142 199 -104 214 -129 b 340 -169 254 -147 326 -167 b 363 -240 310 -194 328 -240 b 424 -214 378 -240 414 -222 z "},"È":{"ha":649,"x_min":0,"x_max":0,"o":"m 617 143 b 588 213 644 171 619 213 b 565 206 581 213 572 211 b 504 172 546 193 526 181 b 331 138 468 160 389 138 b 279 149 310 138 292 142 b 238 253 256 163 242 226 b 242 453 229 319 235 386 b 372 483 286 457 331 469 b 356 578 428 500 413 581 b 256 565 322 576 289 571 b 279 799 267 643 278 721 b 276 844 279 814 278 829 b 378 851 321 847 364 850 b 485 853 413 853 449 854 b 567 864 497 853 554 861 b 575 953 611 874 618 936 b 463 978 540 968 501 978 b 129 925 350 978 238 954 b 110 931 122 928 117 931 b 68 900 92 931 75 918 b 94 844 58 876 71 853 b 158 840 104 842 147 840 b 97 515 131 735 113 624 b 78 511 89 513 82 511 b 78 435 31 506 32 439 l 88 435 b 106 150 79 339 76 240 b 304 0 132 54 204 0 b 617 143 410 0 543 69 z m 393 1153 b 311 1178 364 1174 347 1178 b 226 1153 282 1178 249 1172 b 231 1086 206 1135 207 1100 b 257 1078 239 1081 249 1078 b 286 1089 268 1078 278 1082 b 347 1078 307 1090 329 1086 b 369 1072 354 1074 363 1072 b 393 1153 407 1072 431 1125 z "},"É":{"ha":649,"x_min":0,"x_max":0,"o":"m 617 143 b 588 213 644 171 619 213 b 565 206 581 213 572 211 b 504 172 546 193 526 181 b 331 138 468 160 389 138 b 279 149 310 138 292 142 b 238 253 256 163 242 226 b 242 453 229 319 235 386 b 372 483 286 457 331 469 b 356 578 428 500 413 581 b 256 565 322 576 289 571 b 279 799 267 643 278 721 b 276 844 279 814 278 829 b 378 851 321 847 364 850 b 485 853 413 853 449 854 b 567 864 497 853 554 861 b 575 953 611 874 618 936 b 463 978 540 968 501 978 b 129 925 350 978 238 954 b 110 931 122 928 117 931 b 68 900 92 931 75 918 b 94 844 58 876 71 853 b 158 840 104 842 147 840 b 97 515 131 735 113 624 b 78 511 89 513 82 511 b 78 435 31 506 32 439 l 88 435 b 106 150 79 339 76 240 b 304 0 132 54 204 0 b 617 143 410 0 543 69 z m 369 1094 b 438 1151 389 1117 411 1138 b 468 1158 446 1157 458 1157 b 464 1235 518 1163 514 1236 b 300 1138 413 1235 319 1185 b 340 1081 288 1107 314 1081 b 369 1094 350 1081 361 1085 z "},"Ê":{"ha":649,"x_min":0,"x_max":0,"o":"m 617 143 b 588 213 644 171 619 213 b 565 206 581 213 572 211 b 504 172 546 193 526 181 b 331 138 468 160 389 138 b 279 149 310 138 292 142 b 238 253 256 163 242 226 b 242 453 229 319 235 386 b 372 483 286 457 331 469 b 356 578 428 500 413 581 b 256 565 322 576 289 571 b 279 799 267 643 278 721 b 276 844 279 814 278 829 b 378 851 321 847 364 850 b 485 853 413 853 449 854 b 567 864 497 853 554 861 b 575 953 611 874 618 936 b 463 978 540 968 501 978 b 129 925 350 978 238 954 b 110 931 122 928 117 931 b 68 900 92 931 75 918 b 94 844 58 876 71 853 b 158 840 104 842 147 840 b 97 515 131 735 113 624 b 78 511 89 513 82 511 b 78 435 31 506 32 439 l 88 435 b 106 150 79 339 76 240 b 304 0 132 54 204 0 b 617 143 410 0 543 69 z m 513 1099 b 453 1178 499 1129 479 1158 b 367 1197 429 1196 396 1201 b 249 1144 324 1190 286 1165 b 268 1069 213 1124 228 1069 b 306 1079 282 1069 294 1074 b 396 1113 324 1086 378 1117 b 444 1057 411 1110 435 1069 b 475 1042 453 1046 464 1042 b 513 1099 501 1042 526 1068 z "},"Ë":{"ha":649,"x_min":0,"x_max":0,"o":"m 617 143 b 588 213 644 171 619 213 b 565 206 581 213 572 211 b 504 172 546 193 526 181 b 331 138 468 160 389 138 b 279 149 310 138 292 142 b 238 253 256 163 242 226 b 242 453 229 319 235 386 b 372 483 286 457 331 469 b 356 578 428 500 413 581 b 256 565 322 576 289 571 b 279 799 267 643 278 721 b 276 844 279 814 278 829 b 378 851 321 847 364 850 b 485 853 413 853 449 854 b 567 864 497 853 554 861 b 575 953 611 874 618 936 b 463 978 540 968 501 978 b 129 925 350 978 238 954 b 110 931 122 928 117 931 b 68 900 92 931 75 918 b 94 844 58 876 71 853 b 158 840 104 842 147 840 b 97 515 131 735 113 624 b 78 511 89 513 82 511 b 78 435 31 506 32 439 l 88 435 b 106 150 79 339 76 240 b 304 0 132 54 204 0 b 617 143 410 0 543 69 z m 310 1097 b 269 1168 340 1128 311 1179 b 243 1164 261 1165 253 1165 b 256 1069 186 1151 197 1072 b 310 1097 276 1069 296 1083 z m 481 1135 l 481 1138 b 442 1175 479 1160 461 1175 b 419 1168 435 1175 426 1172 b 424 1074 367 1154 368 1079 b 429 1074 425 1074 428 1074 b 481 1135 460 1074 488 1104 z "},"Ì":{"ha":385,"x_min":0,"x_max":0,"o":"m 226 -3 b 319 7 257 -3 289 0 b 314 89 368 17 363 86 b 242 88 290 90 267 90 b 238 118 240 97 239 108 b 232 301 229 179 231 240 b 267 836 236 481 268 658 b 265 894 267 856 267 875 b 313 896 281 893 297 893 b 321 986 364 901 369 972 b 263 996 303 992 281 996 b 126 983 231 996 146 985 b 83 954 110 982 90 971 b 132 904 72 924 101 894 b 151 903 136 904 143 904 b 129 746 142 851 132 769 b 90 317 111 603 94 460 b 100 189 89 274 92 231 b 135 79 107 151 118 114 b 81 81 117 79 99 79 b 61 7 38 85 22 25 b 132 1 72 3 119 1 b 182 -3 138 1 176 -1 l 190 -3 b 226 -3 201 -8 215 -8 z m 238 1158 b 160 1207 211 1175 183 1188 b 136 1214 153 1213 144 1214 b 99 1167 114 1214 93 1193 b 200 1092 106 1138 172 1104 b 218 1088 207 1089 213 1088 b 238 1158 251 1088 274 1136 z "},"Í":{"ha":385,"x_min":0,"x_max":0,"o":"m 226 -3 b 319 7 257 -3 289 0 b 314 89 368 17 363 86 b 242 88 290 90 267 90 b 238 118 240 97 239 108 b 232 301 229 179 231 240 b 267 836 236 481 268 658 b 265 894 267 856 267 875 b 313 896 281 893 297 893 b 321 986 364 901 369 972 b 263 996 303 992 281 996 b 126 983 231 996 146 985 b 83 954 110 982 90 971 b 132 904 72 924 101 894 b 151 903 136 904 143 904 b 129 746 142 851 132 769 b 90 317 111 603 94 460 b 100 189 89 274 92 231 b 135 79 107 151 118 114 b 81 81 117 79 99 79 b 61 7 38 85 22 25 b 132 1 72 3 119 1 b 182 -3 138 1 176 -1 l 190 -3 b 226 -3 201 -8 215 -8 z m 315 1149 b 326 1157 317 1150 325 1156 b 301 1226 357 1182 335 1226 b 157 1136 278 1226 179 1153 b 179 1065 124 1111 146 1065 b 315 1149 206 1065 303 1132 z "},"Î":{"ha":386,"x_min":0,"x_max":0,"o":"m 226 -3 b 319 7 257 -3 289 0 b 314 89 368 17 363 86 b 242 88 290 90 267 90 b 238 118 240 97 239 108 b 232 301 229 179 231 240 b 267 836 236 481 268 658 b 265 894 267 856 267 875 b 313 896 281 893 297 893 b 321 986 364 901 369 972 b 263 996 303 992 281 996 b 126 983 231 996 146 985 b 83 954 110 982 90 971 b 132 904 72 924 101 894 b 151 903 136 904 143 904 b 129 746 142 851 132 769 b 90 317 111 603 94 460 b 100 189 89 274 92 231 b 135 79 107 151 118 114 b 81 81 117 79 99 79 b 61 7 38 85 22 25 b 132 1 72 3 119 1 b 182 -3 138 1 176 -1 l 190 -3 b 226 -3 201 -8 215 -8 z m 150 1074 b 258 1119 169 1085 231 1119 b 321 1076 271 1117 310 1085 b 346 1068 329 1071 338 1068 b 378 1132 375 1068 400 1103 b 244 1213 347 1175 300 1213 b 135 1169 206 1213 165 1190 b 118 1174 129 1172 124 1174 b 93 1163 108 1174 100 1169 b 58 1108 76 1149 61 1129 b 101 1058 56 1085 76 1060 b 150 1074 118 1058 135 1067 z "},"Ï":{"ha":385,"x_min":0,"x_max":0,"o":"m 226 -3 b 319 7 257 -3 289 0 b 314 89 368 17 363 86 b 242 88 290 90 267 90 b 238 118 240 97 239 108 b 232 301 229 179 231 240 b 267 836 236 481 268 658 b 265 894 267 856 267 875 b 313 896 281 893 297 893 b 321 986 364 901 369 972 b 263 996 303 992 281 996 b 126 983 231 996 146 985 b 83 954 110 982 90 971 b 132 904 72 924 101 894 b 151 903 136 904 143 904 b 129 746 142 851 132 769 b 90 317 111 603 94 460 b 100 189 89 274 92 231 b 135 79 107 151 118 114 b 81 81 117 79 99 79 b 61 7 38 85 22 25 b 132 1 72 3 119 1 b 182 -3 138 1 176 -1 l 190 -3 b 226 -3 201 -8 215 -8 z m 168 1131 b 144 1207 203 1154 185 1207 b 121 1206 136 1207 128 1206 b 89 1124 78 1204 54 1151 b 121 1113 97 1117 110 1113 b 168 1131 135 1113 157 1122 z m 333 1128 b 350 1194 357 1139 365 1172 b 314 1214 342 1208 328 1214 b 271 1185 297 1214 279 1204 b 313 1122 258 1153 282 1122 b 333 1128 319 1122 326 1124 z "},"Ð":{"ha":829,"x_min":0,"x_max":0,"o":"m 540 161 b 778 507 639 251 738 379 b 793 681 794 563 801 624 b 517 971 775 817 646 940 b 393 986 476 981 435 986 b 36 878 314 986 93 940 b 68 810 14 851 35 810 b 104 817 78 810 96 811 l 107 817 b 164 829 126 821 144 825 b 132 572 149 744 136 658 l 132 546 b 99 538 121 542 110 539 b 110 461 51 526 61 458 b 129 463 113 461 119 461 b 226 83 129 356 129 156 b 217 76 222 81 218 78 b 249 -18 175 44 201 -18 b 540 161 331 -18 482 108 z m 294 139 b 285 178 290 144 286 171 b 271 326 279 199 272 304 b 267 479 268 376 267 428 b 422 506 329 489 403 500 b 413 590 469 518 463 588 b 268 574 389 590 328 583 b 279 796 271 647 275 721 b 282 850 279 814 281 832 b 378 858 313 854 346 858 b 653 719 485 858 601 821 b 669 582 674 678 679 626 b 296 136 635 410 426 238 z "},"Ñ":{"ha":801,"x_min":0,"x_max":0,"o":"m 697 51 b 701 93 696 58 701 88 b 708 232 703 110 707 214 b 728 544 710 271 726 506 b 725 819 732 636 738 728 b 704 893 722 844 718 871 b 611 933 685 926 649 943 b 300 414 461 903 340 536 b 217 175 274 335 250 253 b 217 394 210 249 214 322 b 242 675 219 489 229 582 b 264 892 251 746 264 818 b 200 985 261 933 251 985 b 135 925 169 985 139 961 l 135 922 b 103 758 128 901 106 781 b 64 278 76 600 57 439 b 163 14 68 196 79 58 b 196 6 174 8 185 6 b 267 47 225 6 251 21 b 292 101 275 64 285 82 b 450 554 347 250 389 406 b 604 818 476 621 543 775 b 606 807 607 822 606 811 b 561 249 615 621 567 436 b 565 139 560 213 561 175 b 599 35 569 103 578 64 b 651 -3 611 15 626 -3 b 697 51 679 -3 701 21 z m 631 1101 b 593 1153 640 1131 618 1153 b 560 1132 581 1153 568 1147 b 550 1115 558 1131 550 1118 b 474 1158 529 1140 508 1158 b 372 1117 438 1158 400 1139 b 386 1032 340 1090 346 1036 b 421 1046 400 1031 413 1035 b 469 1065 428 1054 460 1063 b 514 1022 485 1051 497 1033 b 550 1010 525 1014 538 1010 b 631 1101 596 1010 619 1064 z "},"Ò":{"ha":806,"x_min":0,"x_max":0,"o":"m 392 1174 b 297 1208 360 1185 329 1199 b 274 1135 249 1221 226 1151 b 368 1097 306 1124 335 1106 b 392 1174 417 1085 439 1156 z m 753 511 b 761 724 767 581 774 654 b 575 890 744 828 679 890 b 528 886 560 890 543 889 b 519 892 525 885 522 889 b 489 925 508 901 501 915 b 347 985 457 954 389 985 b 158 844 263 985 197 913 b 43 433 85 722 43 575 b 336 57 43 265 146 57 b 753 511 549 57 717 328 z m 215 294 b 190 551 176 371 178 467 b 354 875 204 643 269 836 b 388 879 361 878 375 879 b 443 860 413 879 424 876 b 313 794 399 840 354 819 b 349 718 271 767 301 703 b 488 767 365 724 471 761 b 572 783 515 775 544 783 b 650 706 628 783 643 756 b 631 492 663 635 650 561 b 403 201 597 378 518 249 b 351 192 388 194 369 192 b 215 294 286 192 243 239 z "},"Ó":{"ha":806,"x_min":0,"x_max":0,"o":"m 461 1093 b 597 1167 508 1115 550 1147 b 583 1240 638 1185 622 1240 b 422 1163 557 1240 446 1179 b 443 1089 388 1139 408 1089 b 461 1093 449 1089 456 1090 z m 753 511 b 761 724 767 581 774 654 b 575 890 744 828 679 890 b 528 886 560 890 543 889 b 519 892 525 885 522 889 b 489 925 508 901 501 915 b 347 985 457 954 389 985 b 158 844 263 985 197 913 b 43 433 85 722 43 575 b 336 57 43 265 146 57 b 753 511 549 57 717 328 z m 215 294 b 190 551 176 371 178 467 b 354 875 204 643 269 836 b 388 879 361 878 375 879 b 443 860 413 879 424 876 b 313 794 399 840 354 819 b 349 718 271 767 301 703 b 488 767 365 724 471 761 b 572 783 515 775 544 783 b 650 706 628 783 643 756 b 631 492 663 635 650 561 b 403 201 597 378 518 249 b 351 192 388 194 369 192 b 215 294 286 192 243 239 z "},"Ô":{"ha":806,"x_min":0,"x_max":0,"o":"m 753 511 b 761 724 767 581 774 654 b 575 890 744 828 679 890 b 528 886 560 890 543 889 b 519 892 525 885 522 889 b 489 925 508 901 501 915 b 347 985 457 954 389 985 b 158 844 263 985 197 913 b 43 433 85 722 43 575 b 336 57 43 265 146 57 b 753 511 549 57 717 328 z m 597 1100 b 590 1106 594 1101 593 1103 l 557 1161 b 521 1203 547 1178 536 1194 b 469 1208 506 1211 486 1213 b 392 1161 440 1200 415 1179 b 360 1135 388 1158 364 1138 b 383 1064 324 1114 342 1058 b 482 1111 419 1067 450 1093 b 531 1043 496 1088 510 1063 b 576 1024 542 1033 561 1024 b 597 1100 615 1024 635 1078 z m 215 294 b 190 551 176 371 178 467 b 354 875 204 643 269 836 b 388 879 361 878 375 879 b 443 860 413 879 424 876 b 313 794 399 840 354 819 b 349 718 271 767 301 703 b 488 767 365 724 471 761 b 572 783 515 775 544 783 b 650 706 628 783 643 756 b 631 492 663 635 650 561 b 403 201 597 378 518 249 b 351 192 388 194 369 192 b 215 294 286 192 243 239 z "},"Õ":{"ha":806,"x_min":0,"x_max":0,"o":"m 582 1118 b 546 1178 597 1149 574 1178 b 525 1172 539 1178 532 1176 b 504 1157 518 1168 511 1161 b 472 1156 497 1154 479 1151 b 431 1201 464 1160 438 1196 b 386 1218 419 1211 403 1218 b 369 1215 381 1218 375 1218 b 307 1132 339 1206 306 1164 b 354 1083 308 1103 332 1083 b 389 1108 369 1083 382 1090 b 483 1061 415 1079 443 1061 b 582 1118 524 1061 564 1082 z m 753 511 b 761 724 767 581 774 654 b 575 890 744 828 679 890 b 528 886 560 890 543 889 b 519 892 525 885 522 889 b 489 925 508 901 501 915 b 347 985 457 954 389 985 b 158 844 263 985 197 913 b 43 433 85 722 43 575 b 336 57 43 265 146 57 b 753 511 549 57 717 328 z m 215 294 b 190 551 176 371 178 467 b 354 875 204 643 269 836 b 388 879 361 878 375 879 b 443 860 413 879 424 876 b 313 794 399 840 354 819 b 349 718 271 767 301 703 b 488 767 365 724 471 761 b 572 783 515 775 544 783 b 650 706 628 783 643 756 b 631 492 663 635 650 561 b 403 201 597 378 518 249 b 351 192 388 194 369 192 b 215 294 286 192 243 239 z "},"Ö":{"ha":807,"x_min":0,"x_max":0,"o":"m 414 1090 b 440 1167 453 1093 468 1140 b 419 1179 435 1172 426 1175 b 394 1186 411 1183 403 1186 b 360 1106 354 1186 324 1138 b 383 1092 367 1100 374 1094 b 414 1090 393 1089 404 1089 z m 610 1060 b 614 1061 611 1060 613 1060 b 619 1136 658 1064 663 1128 b 610 1140 618 1138 611 1140 b 593 1143 604 1142 599 1143 b 561 1072 560 1143 538 1103 b 594 1057 569 1063 582 1057 b 610 1060 599 1057 604 1058 z m 753 511 b 761 724 767 581 774 654 b 575 890 744 828 679 890 b 528 886 560 890 543 889 b 519 892 525 885 522 889 b 489 925 508 901 501 915 b 347 985 457 954 389 985 b 158 844 263 985 197 913 b 43 433 85 722 43 575 b 336 57 43 265 146 57 b 753 511 549 57 717 328 z m 215 294 b 190 551 176 371 178 467 b 354 875 204 643 269 836 b 388 879 361 878 375 879 b 443 860 413 879 424 876 b 313 794 399 840 354 819 b 349 718 271 767 301 703 b 488 767 365 724 471 761 b 572 783 515 775 544 783 b 650 706 628 783 643 756 b 631 492 663 635 650 561 b 403 201 597 378 518 249 b 351 192 388 194 369 192 b 215 294 286 192 243 239 z "},"×":{"ha":536,"x_min":0,"x_max":0,"o":"m 464 210 b 407 299 457 221 414 288 b 307 426 394 317 353 369 b 475 578 357 483 410 538 b 456 649 510 600 489 649 b 438 644 450 649 444 647 b 260 489 386 628 296 528 l 258 488 b 160 610 213 543 172 592 b 144 639 158 621 153 633 b 115 660 140 643 119 657 b 89 671 107 668 99 671 b 47 633 69 671 50 656 b 61 589 46 618 54 603 b 168 421 92 529 129 475 b 182 401 172 414 176 408 b 147 360 169 388 158 374 b 58 211 125 331 56 249 b 100 175 61 188 81 175 b 136 200 114 175 129 182 b 171 251 140 208 165 244 b 229 335 189 281 208 308 l 279 268 b 428 140 306 233 381 140 b 464 210 460 140 483 178 z "},"Ø":{"ha":869,"x_min":0,"x_max":0,"o":"m 125 67 b 186 154 144 96 165 125 b 193 146 189 151 190 149 b 383 57 243 90 308 57 b 800 511 596 57 764 328 b 808 724 814 581 821 654 b 761 832 801 763 786 803 b 800 886 779 856 794 875 b 828 944 810 904 818 925 b 792 1000 842 974 817 1000 b 760 981 779 1000 768 994 b 721 914 746 958 736 935 b 693 879 718 908 707 894 l 692 881 b 622 890 669 888 646 890 b 575 886 607 890 590 889 b 567 892 572 885 569 889 b 536 925 556 901 547 915 b 489 956 522 938 504 946 b 394 985 460 971 428 985 b 206 844 310 985 244 913 b 90 433 132 722 90 575 b 135 235 90 367 106 296 b 47 122 104 199 75 160 b 26 82 39 111 31 97 b 67 25 15 51 40 25 b 125 67 90 25 113 49 z m 238 551 b 401 875 251 643 315 836 b 435 879 408 878 422 879 b 489 860 457 879 472 876 b 360 794 446 840 401 819 b 396 718 318 767 349 703 b 535 767 413 724 518 761 b 610 783 560 774 585 781 b 239 363 486 643 360 506 b 238 551 225 424 228 490 z m 276 269 b 579 619 372 389 476 504 b 688 744 594 639 642 690 b 697 706 693 732 696 718 b 678 492 710 635 697 561 b 450 201 644 378 565 249 b 399 192 435 194 417 192 b 276 269 343 192 304 225 z "},"Ù":{"ha":710,"x_min":0,"x_max":0,"o":"m 425 1110 b 324 1164 393 1129 357 1146 b 311 1174 319 1167 315 1171 b 282 1178 303 1176 292 1178 b 268 1089 236 1178 221 1111 b 388 1035 283 1082 372 1042 b 404 1032 393 1032 399 1032 b 425 1110 442 1032 463 1085 z m 628 403 b 656 746 647 515 657 631 b 635 914 656 803 653 861 b 599 942 629 933 614 942 b 560 899 578 942 557 926 b 565 854 560 893 564 860 b 569 747 569 819 571 783 b 390 114 569 549 539 263 b 343 89 379 104 358 89 b 239 299 276 89 247 254 b 229 764 214 451 221 610 b 231 875 231 801 232 839 b 161 963 231 917 210 963 b 81 844 100 963 85 893 b 71 417 61 703 57 558 b 260 -7 82 276 118 64 b 333 -26 283 -19 308 -26 b 628 403 508 -26 603 269 z "},"Ú":{"ha":710,"x_min":0,"x_max":0,"o":"m 413 1040 b 483 1085 421 1044 475 1079 b 536 1115 501 1096 519 1104 b 563 1167 553 1126 565 1149 b 514 1203 557 1189 536 1203 b 451 1172 489 1203 469 1188 b 364 1104 440 1164 375 1113 b 390 1033 335 1076 357 1033 b 413 1040 397 1033 404 1036 z m 628 403 b 656 746 647 515 657 631 b 635 914 656 803 653 861 b 599 942 629 933 614 942 b 560 899 578 942 557 926 b 565 854 560 893 564 860 b 569 747 569 819 571 783 b 390 114 569 549 539 263 b 343 89 379 104 358 89 b 239 299 276 89 247 254 b 229 764 214 451 221 610 b 231 875 231 801 232 839 b 161 963 231 917 210 963 b 81 844 100 963 85 893 b 71 417 61 703 57 558 b 260 -7 82 276 118 64 b 333 -26 283 -19 308 -26 b 628 403 508 -26 603 269 z "},"Û":{"ha":710,"x_min":0,"x_max":0,"o":"m 507 1071 b 488 1142 503 1094 497 1118 b 421 1206 478 1175 460 1206 b 365 1182 400 1206 382 1194 b 296 1122 342 1164 318 1143 b 268 1113 286 1122 275 1118 b 247 1072 263 1106 250 1081 b 289 1022 242 1047 264 1022 b 407 1099 315 1022 385 1081 b 431 1044 415 1081 422 1063 b 467 1021 439 1028 453 1021 b 507 1071 490 1021 513 1042 z m 628 403 b 656 746 647 515 657 631 b 635 914 656 803 653 861 b 599 942 629 933 614 942 b 560 899 578 942 557 926 b 565 854 560 893 564 860 b 569 747 569 819 571 783 b 390 114 569 549 539 263 b 343 89 379 104 358 89 b 239 299 276 89 247 254 b 229 764 214 451 221 610 b 231 875 231 801 232 839 b 161 963 231 917 210 963 b 81 844 100 963 85 893 b 71 417 61 703 57 558 b 260 -7 82 276 118 64 b 333 -26 283 -19 308 -26 b 628 403 508 -26 603 269 z "},"Ü":{"ha":710,"x_min":0,"x_max":0,"o":"m 628 403 b 656 746 647 515 657 631 b 635 914 656 803 653 861 b 599 942 629 933 614 942 b 560 899 578 942 557 926 b 565 854 560 893 564 860 b 569 747 569 819 571 783 b 390 114 569 549 539 263 b 343 89 379 104 358 89 b 239 299 276 89 247 254 b 229 764 214 451 221 610 b 231 875 231 801 232 839 b 161 963 231 917 210 963 b 81 844 100 963 85 893 b 71 417 61 703 57 558 b 260 -7 82 276 118 64 b 333 -26 283 -19 308 -26 b 628 403 508 -26 603 269 z m 299 1033 l 300 1033 b 300 1103 329 1049 329 1089 b 278 1108 293 1107 285 1108 b 233 1061 251 1108 229 1089 b 274 1024 236 1039 254 1024 b 299 1033 282 1024 290 1026 z m 465 1036 b 479 1042 467 1038 478 1040 b 456 1115 522 1061 501 1125 b 447 1114 453 1115 450 1115 b 418 1047 413 1114 396 1072 b 465 1036 429 1035 449 1031 z "},"Ý":{"ha":603,"x_min":0,"x_max":0,"o":"m 347 1029 b 390 1074 363 1044 375 1061 b 413 1088 397 1079 406 1083 b 392 1158 447 1111 425 1158 b 374 1154 386 1158 379 1157 b 292 1082 340 1138 317 1108 b 321 1018 267 1053 292 1018 b 347 1029 329 1018 339 1021 z m 372 85 b 353 208 375 126 361 167 b 318 399 347 232 331 332 b 325 403 319 400 322 401 b 514 679 410 458 474 590 b 581 846 539 733 565 788 b 586 919 588 869 588 896 b 546 957 585 943 565 957 b 511 935 532 957 518 950 b 335 585 453 818 406 694 b 282 518 319 561 301 538 b 261 506 275 511 268 500 b 204 640 238 524 213 613 b 147 864 197 668 156 838 b 99 969 138 901 128 944 b 69 982 90 978 79 982 b 25 943 49 982 28 967 b 85 599 19 883 68 654 b 219 394 107 521 138 428 b 229 133 215 307 214 219 b 322 11 238 90 268 11 b 372 85 367 11 372 50 z "},"Þ":{"ha":569,"x_min":0,"x_max":0,"o":"m 219 -37 b 221 38 243 -17 246 19 b 217 114 221 47 218 104 b 215 199 215 142 215 171 b 549 465 314 240 525 344 b 547 533 554 488 554 511 b 338 653 524 615 415 653 b 257 643 311 653 285 649 b 271 803 264 696 268 749 b 267 908 272 838 274 874 b 214 956 261 936 238 956 b 160 881 172 956 164 913 b 89 350 138 704 106 528 b 83 253 86 318 83 285 b 69 250 79 251 74 250 b 56 169 25 247 14 186 b 86 163 64 165 75 163 b 97 75 88 133 92 104 b 188 -53 110 18 146 -53 b 219 -37 197 -53 208 -49 z m 244 535 b 310 540 267 538 289 540 b 435 497 344 540 418 528 b 424 467 438 490 429 474 b 222 317 390 415 274 346 b 244 535 226 390 236 463 z "},"ß":{"ha":646,"x_min":0,"x_max":0,"o":"m 169 -118 b 160 -51 193 -99 188 -64 b 153 53 158 -39 153 40 b 201 547 143 218 158 388 b 361 842 218 608 285 842 b 481 739 410 842 468 781 b 404 622 496 686 458 635 b 367 614 400 621 372 615 b 360 507 307 607 303 528 b 425 439 394 489 406 474 b 493 249 460 381 481 315 b 494 165 496 233 500 179 b 463 158 490 154 472 157 b 357 218 422 167 392 197 b 335 225 350 222 342 225 b 303 154 303 225 278 183 b 408 67 332 119 367 85 b 489 54 433 56 461 51 b 590 144 540 63 578 93 b 593 243 599 176 597 211 b 485 533 579 346 544 449 b 561 828 590 593 628 726 b 365 943 521 889 442 943 b 83 492 199 943 114 624 b 43 79 53 357 38 218 b 121 -140 43 29 51 -140 b 169 -118 138 -140 157 -129 z "},"à":{"ha":569,"x_min":0,"x_max":0,"o":"m 358 960 b 328 976 349 965 338 969 b 292 1029 338 1001 318 1029 b 250 1021 279 1029 260 1028 b 238 949 228 1006 224 972 b 342 883 253 924 311 883 b 358 960 379 883 399 939 z m 263 192 b 375 379 311 247 344 314 b 496 182 385 322 421 182 b 540 240 525 182 549 210 b 501 421 526 300 510 360 b 485 589 493 476 494 533 b 432 640 481 615 457 638 b 313 746 421 700 371 746 b 44 413 174 746 79 529 b 28 282 32 371 24 326 b 160 139 35 207 88 139 b 263 192 200 139 239 161 z m 156 343 b 313 615 175 419 242 571 b 329 619 317 617 326 622 b 353 575 338 614 349 583 b 351 565 354 572 353 568 b 331 525 344 553 338 539 b 322 513 331 524 324 514 b 193 299 306 483 213 325 b 164 265 185 286 175 274 b 156 343 146 285 150 318 z "},"á":{"ha":569,"x_min":0,"x_max":0,"o":"m 293 854 b 371 931 306 863 360 919 b 365 1013 422 939 413 1013 b 322 999 350 1013 335 1007 b 236 911 307 988 249 926 b 268 846 213 882 238 846 b 293 854 276 846 285 849 z m 263 192 b 375 379 311 247 344 314 b 496 182 385 322 421 182 b 540 240 525 182 549 210 b 501 421 526 300 510 360 b 485 589 493 476 494 533 b 432 640 481 615 457 638 b 313 746 421 700 371 746 b 44 413 174 746 79 529 b 28 282 32 371 24 326 b 160 139 35 207 88 139 b 263 192 200 139 239 161 z m 156 343 b 313 615 175 419 242 571 b 329 619 317 617 326 622 b 353 575 338 614 349 583 b 351 565 354 572 353 568 b 331 525 344 553 338 539 b 322 513 331 524 324 514 b 193 299 306 483 213 325 b 164 265 185 286 175 274 b 156 343 146 285 150 318 z "},"â":{"ha":571,"x_min":0,"x_max":0,"o":"m 431 860 b 311 992 410 919 369 992 b 221 938 274 992 244 963 b 182 893 217 932 189 899 b 206 825 153 868 174 825 b 226 831 213 825 219 826 b 308 907 258 849 278 886 b 358 825 317 897 351 835 b 392 806 367 813 379 806 b 431 860 417 806 440 829 z m 263 192 b 375 379 311 247 344 314 b 496 182 385 322 421 182 b 540 240 525 182 549 210 b 501 421 526 300 510 360 b 485 589 493 476 494 533 b 432 640 481 615 457 638 b 313 746 421 700 371 746 b 44 413 174 746 79 529 b 28 282 32 371 24 326 b 160 139 35 207 88 139 b 263 192 200 139 239 161 z m 156 343 b 313 615 175 419 242 571 b 329 619 317 617 326 622 b 353 575 338 614 349 583 b 351 565 354 572 353 568 b 331 525 344 553 338 539 b 322 513 331 524 324 514 b 193 299 306 483 213 325 b 164 265 185 286 175 274 b 156 343 146 285 150 318 z "},"ã":{"ha":574,"x_min":0,"x_max":0,"o":"m 299 861 b 308 872 299 864 307 872 b 382 829 332 856 354 836 b 438 838 400 825 419 828 b 476 878 453 847 465 863 b 442 940 496 908 469 940 b 414 928 432 940 422 936 b 400 914 410 922 406 918 b 317 963 371 928 349 956 b 281 958 304 965 292 963 b 221 882 258 949 226 904 b 261 826 214 853 235 826 b 299 861 281 826 296 842 z m 263 192 b 375 379 311 247 344 314 b 496 182 385 322 421 182 b 540 240 525 182 549 210 b 501 421 526 300 510 360 b 485 589 493 476 494 533 b 432 640 481 615 457 638 b 313 746 421 700 371 746 b 44 413 174 746 79 529 b 28 282 32 371 24 326 b 160 139 35 207 88 139 b 263 192 200 139 239 161 z m 156 343 b 313 615 175 419 242 571 b 329 619 317 617 326 622 b 353 575 338 614 349 583 b 351 565 354 572 353 568 b 331 525 344 553 338 539 b 322 513 331 524 324 514 b 193 299 306 483 213 325 b 164 265 185 286 175 274 b 156 343 146 285 150 318 z "},"ä":{"ha":575,"x_min":0,"x_max":0,"o":"m 253 867 b 299 911 272 876 292 892 b 276 982 329 933 315 982 b 218 972 265 982 228 978 b 197 876 185 949 167 903 b 233 863 207 867 219 863 b 253 867 240 863 246 864 z m 474 897 b 478 900 475 897 476 900 b 472 978 519 913 514 972 b 435 975 460 979 446 979 b 432 890 396 960 393 904 b 447 888 436 889 442 888 b 474 897 456 888 465 890 z m 263 192 b 375 379 311 247 344 314 b 496 182 385 322 421 182 b 540 240 525 182 549 210 b 501 421 526 300 510 360 b 485 589 493 476 494 533 b 432 640 481 615 457 638 b 313 746 421 700 371 746 b 44 413 174 746 79 529 b 28 282 32 371 24 326 b 160 139 35 207 88 139 b 263 192 200 139 239 161 z m 156 343 b 313 615 175 419 242 571 b 329 619 317 617 326 622 b 353 575 338 614 349 583 b 351 565 354 572 353 568 b 331 525 344 553 338 539 b 322 513 331 524 324 514 b 193 299 306 483 213 325 b 164 265 185 286 175 274 b 156 343 146 285 150 318 z "},"å":{"ha":571,"x_min":0,"x_max":0,"o":"m 263 192 b 375 379 311 247 344 314 b 496 182 385 322 421 182 b 540 240 525 182 549 210 b 501 421 526 300 510 360 b 485 589 493 476 494 533 b 432 640 481 615 457 638 b 371 729 425 678 401 711 b 414 914 413 778 451 864 b 299 964 390 947 338 964 b 261 939 283 964 268 954 b 232 917 250 935 238 928 b 210 842 218 894 213 868 b 213 757 206 814 204 785 b 231 721 217 743 222 731 b 44 413 142 665 74 510 b 28 282 32 371 24 326 b 160 139 35 207 88 139 b 263 192 200 139 239 161 z m 300 858 b 322 876 310 861 318 868 b 343 867 329 874 338 871 b 342 857 344 865 343 860 b 300 783 335 829 321 803 b 300 858 296 807 296 833 z m 156 343 b 313 615 175 419 242 571 b 329 619 317 617 326 622 b 353 575 338 614 349 583 b 351 565 354 572 353 568 b 331 525 344 553 338 539 b 322 513 331 524 324 514 b 193 299 306 483 213 325 b 164 265 185 286 175 274 b 156 343 146 285 150 318 z "},"æ":{"ha":831,"x_min":0,"x_max":0,"o":"m 228 160 b 358 347 279 197 329 289 b 607 164 381 217 486 164 b 785 206 667 164 731 181 b 765 288 831 224 814 292 b 646 279 725 283 686 279 b 478 390 564 279 478 293 b 740 603 588 390 714 494 b 738 669 744 624 744 647 b 631 736 724 714 674 736 b 453 643 563 736 496 692 b 447 635 451 640 449 638 b 431 639 442 638 436 639 b 315 747 419 700 379 747 b 76 503 201 747 117 592 b 28 283 46 435 22 358 b 163 139 31 211 88 139 b 228 160 186 139 207 146 z m 164 265 b 179 419 138 299 161 381 b 328 622 206 476 267 596 b 353 574 333 615 349 581 b 351 568 354 572 353 569 b 247 386 339 547 260 408 b 171 271 224 347 201 306 b 164 265 168 269 165 264 z m 564 575 b 624 610 581 592 601 604 b 506 493 606 558 554 519 b 564 575 521 524 539 553 z "},"ç":{"ha":488,"x_min":0,"x_max":0,"o":"m 351 -36 b 336 38 361 -8 356 18 b 218 90 307 69 257 72 b 254 160 228 115 242 138 b 360 186 290 161 328 171 b 444 228 389 199 417 214 b 411 308 492 253 463 325 b 293 281 372 296 333 281 b 185 365 242 281 196 314 b 228 531 174 421 193 486 b 303 594 247 557 275 576 b 306 549 306 581 306 564 b 344 513 307 525 326 513 b 383 549 364 513 382 525 b 383 578 383 553 382 575 b 383 643 383 600 389 622 b 292 715 372 689 338 715 b 108 614 221 715 151 665 b 35 350 49 544 19 440 b 164 178 49 272 92 210 b 132 97 149 146 133 113 b 143 49 131 81 133 63 b 188 13 153 32 169 19 b 268 -19 214 0 243 -6 b 226 -78 257 -40 240 -58 b 258 -142 204 -107 229 -142 b 351 -36 293 -142 343 -64 z "},"è":{"ha":504,"x_min":0,"x_max":0,"o":"m 350 925 b 290 964 342 931 300 960 b 244 982 275 971 260 979 b 206 971 231 983 215 979 b 186 947 197 964 190 957 b 232 893 171 917 200 883 b 304 853 257 879 281 865 b 325 847 311 849 318 847 b 350 925 361 847 385 897 z m 308 150 b 456 192 358 154 407 174 b 435 274 506 208 486 282 b 322 264 399 268 360 264 b 158 329 265 264 176 281 b 150 376 151 344 150 360 b 257 408 188 375 225 390 b 346 474 290 425 321 446 b 369 707 413 543 451 658 b 306 724 350 718 328 724 b 40 464 169 724 71 583 b 56 258 22 397 21 317 b 139 182 75 226 106 199 b 308 150 190 156 251 144 z m 296 596 b 178 481 274 542 226 508 b 296 596 204 532 238 581 z "},"é":{"ha":510,"x_min":0,"x_max":0,"o":"m 342 818 b 415 886 357 833 393 885 b 417 963 464 888 465 960 b 408 965 415 963 408 964 b 342 942 385 969 360 956 b 272 872 315 922 289 900 b 310 804 253 839 279 804 b 342 818 321 804 332 808 z m 308 150 b 456 192 358 154 407 174 b 435 274 506 208 486 282 b 322 264 399 268 360 264 b 158 329 265 264 176 281 b 150 376 151 344 150 360 b 257 408 188 375 225 390 b 346 474 290 425 321 446 b 369 707 413 543 451 658 b 306 724 350 718 328 724 b 40 464 169 724 71 583 b 56 258 22 397 21 317 b 139 182 75 226 106 199 b 308 150 190 156 251 144 z m 296 596 b 178 481 274 542 226 508 b 296 596 204 532 238 581 z "},"ê":{"ha":510,"x_min":0,"x_max":0,"o":"m 275 819 b 328 861 293 833 308 851 b 381 814 338 857 374 821 b 407 804 389 807 399 804 b 443 868 436 804 463 836 b 326 956 418 908 376 953 b 221 892 282 956 249 924 b 183 857 199 888 192 876 b 219 799 171 832 190 799 b 275 819 239 797 258 808 z m 308 150 b 456 192 358 154 407 174 b 435 274 506 208 486 282 b 322 264 399 268 360 264 b 158 329 265 264 176 281 b 150 376 151 344 150 360 b 257 408 188 375 225 390 b 346 474 290 425 321 446 b 369 707 413 543 451 658 b 306 724 350 718 328 724 b 40 464 169 724 71 583 b 56 258 22 397 21 317 b 139 182 75 226 106 199 b 308 150 190 156 251 144 z m 296 596 b 178 481 274 542 226 508 b 296 596 204 532 238 581 z "},"ë":{"ha":510,"x_min":0,"x_max":0,"o":"m 308 150 b 456 192 358 154 407 174 b 435 274 506 208 486 282 b 322 264 399 268 360 264 b 158 329 265 264 176 281 b 150 376 151 344 150 360 b 257 408 188 375 225 390 b 346 474 290 425 321 446 b 369 707 413 543 451 658 b 306 724 350 718 328 724 b 40 464 169 724 71 583 b 56 258 22 397 21 317 b 139 182 75 226 106 199 b 308 150 190 156 251 144 z m 251 858 b 264 875 253 861 263 872 b 226 938 290 903 264 946 b 208 942 221 940 214 942 b 158 903 188 942 168 925 b 208 831 142 863 175 831 b 251 858 225 831 242 839 z m 446 931 l 446 933 b 401 972 442 958 422 972 b 368 957 389 972 378 968 b 397 872 342 926 358 882 b 407 871 400 872 403 871 b 446 931 436 871 458 901 z m 296 596 b 178 481 274 542 226 508 b 296 596 204 532 238 581 z "},"ì":{"ha":249,"x_min":0,"x_max":0,"o":"m 196 818 b 99 881 183 826 111 874 b 68 897 90 892 79 897 b 25 853 46 897 24 879 b 99 765 25 821 74 779 b 172 735 114 754 153 735 b 196 818 213 735 236 793 z m 196 264 b 193 285 194 267 193 281 b 190 378 194 296 192 367 b 186 556 190 404 193 531 b 139 593 181 579 160 593 b 83 531 103 593 88 561 b 68 374 71 479 67 426 b 140 203 68 313 74 226 b 157 200 146 200 151 200 b 196 264 188 200 213 233 z "},"í":{"ha":285,"x_min":0,"x_max":0,"o":"m 157 699 b 225 775 169 714 207 769 b 238 776 228 776 235 776 b 235 853 285 781 282 851 b 211 851 231 853 214 851 b 103 775 175 857 124 807 b 86 744 96 765 90 754 b 125 683 71 713 97 683 b 157 699 136 683 149 688 z m 161 264 b 156 378 157 272 156 367 b 151 556 154 404 157 531 b 103 593 146 579 125 593 b 47 531 67 593 54 560 b 32 374 36 479 31 426 b 104 203 33 311 36 229 b 121 200 110 200 115 200 b 161 264 153 200 176 233 z "},"î":{"ha":325,"x_min":0,"x_max":0,"o":"m 82 671 b 179 747 96 679 165 738 b 232 694 197 729 214 710 b 261 683 240 688 251 683 b 300 746 289 683 315 714 b 226 839 283 782 260 818 b 165 849 208 850 185 854 b 44 747 126 842 64 778 b 35 736 43 746 36 738 b 61 665 4 710 29 665 b 82 671 68 665 75 667 z m 221 264 b 215 378 217 272 215 367 b 211 556 214 404 217 531 b 163 593 206 579 185 593 b 107 531 126 593 114 560 b 92 374 96 479 90 426 b 164 203 93 311 96 229 b 181 200 169 200 175 200 b 221 264 213 200 236 233 z "},"ï":{"ha":303,"x_min":0,"x_max":0,"o":"m 219 264 b 214 378 215 272 214 367 b 210 556 213 404 215 531 b 161 593 204 579 183 593 b 106 531 125 593 113 560 b 90 374 94 479 89 426 b 163 203 92 311 94 229 b 179 200 168 200 174 200 b 219 264 211 200 235 233 z m 101 696 l 103 697 b 81 771 128 722 115 764 b 76 772 79 771 78 771 b 21 713 42 781 10 747 b 65 679 26 690 46 679 b 101 696 78 679 92 685 z m 283 735 b 239 781 286 761 264 781 b 222 778 233 781 228 781 b 215 703 190 765 186 721 b 239 696 222 699 231 696 b 283 735 260 696 282 713 z "},"ð":{"ha":465,"x_min":0,"x_max":0,"o":"m 404 364 b 421 553 431 422 433 492 b 401 614 438 575 428 606 b 339 739 385 657 364 699 b 361 753 349 746 357 750 b 396 781 374 761 389 768 b 360 838 408 808 388 838 b 343 833 354 838 349 836 b 292 806 332 828 314 818 b 269 835 285 815 276 825 b 147 915 243 868 193 915 b 113 861 121 915 101 888 b 139 833 118 850 129 842 b 200 765 150 825 192 776 b 210 753 203 761 207 757 b 115 682 168 725 129 697 b 101 650 107 674 104 661 b 140 603 97 622 118 603 b 171 619 151 603 163 608 b 215 657 176 628 208 651 b 256 685 221 661 238 672 b 301 594 274 656 288 625 b 38 357 188 556 83 471 b 31 263 25 328 21 293 b 146 199 47 214 100 199 b 404 364 249 199 361 274 z m 110 286 b 115 324 108 293 113 317 b 324 519 149 419 231 485 b 314 415 329 485 328 447 b 136 281 288 350 211 281 b 110 286 126 281 118 282 z "},"ñ":{"ha":531,"x_min":0,"x_max":0,"o":"m 235 868 b 253 886 235 874 249 882 b 357 836 286 865 319 836 b 447 922 410 836 432 878 b 410 975 458 953 433 975 b 375 951 396 975 382 968 b 360 924 369 942 365 932 b 264 978 328 940 300 971 b 224 972 251 981 236 978 b 156 888 197 958 156 917 b 168 844 154 872 158 856 b 196 832 176 836 186 832 b 235 868 215 832 233 846 z m 176 286 b 261 458 188 307 250 438 b 361 582 288 504 317 553 b 382 426 368 560 379 449 b 417 300 388 383 393 336 b 451 281 425 288 439 281 b 494 331 475 281 499 301 b 494 361 493 335 494 357 b 454 639 494 439 490 568 b 374 693 440 669 407 693 b 157 481 275 693 196 556 b 143 642 156 535 153 589 b 132 696 140 660 135 678 b 93 747 142 728 118 747 b 50 713 75 747 56 736 b 46 676 47 701 47 689 b 43 311 44 622 32 365 b 115 244 51 274 79 244 b 176 286 143 244 164 263 z "},"ò":{"ha":496,"x_min":0,"x_max":0,"o":"m 318 869 b 247 922 308 876 257 915 b 213 946 240 939 226 946 b 172 914 194 946 178 935 b 183 869 168 900 175 883 b 279 800 194 850 260 811 b 297 796 286 797 292 796 b 318 869 333 796 356 847 z m 390 304 b 426 592 468 386 510 514 b 264 646 389 629 315 646 b 222 643 250 646 236 646 b 178 667 213 660 196 667 b 32 439 100 667 43 501 b 35 325 24 401 25 361 b 199 206 58 250 119 206 b 390 304 272 206 342 251 z m 174 336 b 164 426 157 353 160 404 b 203 551 174 469 188 511 b 208 557 204 554 206 557 b 304 543 240 553 272 550 b 357 524 322 539 342 535 b 372 499 364 518 369 508 b 264 342 383 443 313 372 b 207 325 249 332 226 325 b 174 336 193 325 182 328 z "},"ó":{"ha":496,"x_min":0,"x_max":0,"o":"m 201 771 b 342 888 221 786 324 871 b 315 954 369 914 346 954 b 292 946 307 954 300 951 b 153 832 274 932 171 847 b 178 763 122 806 146 763 b 201 771 186 763 193 765 z m 390 304 b 426 592 468 386 510 514 b 264 646 389 629 315 646 b 222 643 250 646 236 646 b 178 667 213 660 196 667 b 32 439 100 667 43 501 b 35 325 24 401 25 361 b 199 206 58 250 119 206 b 390 304 272 206 342 251 z m 174 336 b 164 426 157 353 160 404 b 203 551 174 469 188 511 b 208 557 204 554 206 557 b 304 543 240 553 272 550 b 357 524 322 539 342 535 b 372 499 364 518 369 508 b 264 342 383 443 313 372 b 207 325 249 332 226 325 b 174 336 193 325 182 328 z "},"ô":{"ha":500,"x_min":0,"x_max":0,"o":"m 393 304 b 429 592 471 386 513 514 b 267 646 392 629 318 646 b 225 643 253 646 239 646 b 181 667 215 660 199 667 b 35 439 103 667 46 501 b 38 325 26 401 28 361 b 201 206 61 250 122 206 b 393 304 275 206 344 251 z m 164 796 b 244 897 175 808 233 885 b 318 821 268 871 292 844 b 346 810 326 813 338 810 b 383 874 376 810 403 842 b 246 1000 360 915 301 1000 b 185 958 219 1000 199 979 b 117 863 175 947 125 875 l 108 854 b 103 793 86 840 83 810 b 132 782 111 785 122 782 b 164 796 144 782 156 786 z m 176 336 b 167 426 160 353 163 404 b 206 551 176 469 190 511 b 211 557 207 554 208 557 b 307 543 243 553 275 550 b 360 524 325 539 344 535 b 375 499 367 518 372 508 b 267 342 386 443 315 372 b 210 325 251 332 229 325 b 176 336 196 325 185 328 z "},"õ":{"ha":507,"x_min":0,"x_max":0,"o":"m 456 933 b 421 994 474 964 449 994 b 393 982 411 994 401 990 b 333 919 385 972 344 926 b 329 918 333 919 331 917 b 265 981 314 924 276 969 b 210 1010 250 996 232 1010 b 107 908 164 1010 117 946 b 149 846 99 876 122 846 b 188 886 171 846 188 864 b 207 911 188 893 203 906 b 297 838 233 883 261 851 b 328 832 307 833 318 832 b 456 933 390 832 426 885 z m 393 304 b 429 592 471 386 513 514 b 267 646 392 629 318 646 b 225 643 253 646 239 646 b 181 667 215 660 199 667 b 35 439 103 667 46 501 b 38 325 26 401 28 361 b 201 206 61 250 122 206 b 393 304 275 206 344 251 z m 176 336 b 167 426 160 353 163 404 b 206 551 176 469 190 511 b 211 557 207 554 208 557 b 307 543 243 553 275 550 b 360 524 325 539 344 535 b 375 499 367 518 372 508 b 267 342 386 443 315 372 b 210 325 251 332 229 325 b 176 336 196 325 185 328 z "},"ö":{"ha":503,"x_min":0,"x_max":0,"o":"m 396 304 b 432 592 474 386 515 514 b 269 646 394 629 321 646 b 228 643 256 646 242 646 b 183 667 218 660 201 667 b 38 439 106 667 49 501 b 40 325 29 401 31 361 b 204 206 64 250 125 206 b 396 304 278 206 347 251 z m 151 803 b 171 858 174 813 182 838 b 133 906 176 883 158 906 b 83 882 121 904 92 888 b 103 790 49 853 58 796 b 110 790 106 790 107 790 b 151 803 124 790 138 797 z m 378 814 b 383 849 385 824 385 838 b 346 883 382 871 364 883 b 321 875 338 883 328 881 l 313 871 b 317 788 274 856 276 800 b 328 786 319 786 324 786 b 378 814 346 786 367 797 z m 179 336 b 169 426 163 353 165 404 b 208 551 179 469 193 511 b 214 557 210 554 211 557 b 310 543 246 553 278 550 b 363 524 328 539 347 535 b 378 499 369 518 375 508 b 269 342 389 443 318 372 b 213 325 254 332 232 325 b 179 336 199 325 188 328 z "},"÷":{"ha":478,"x_min":0,"x_max":0,"o":"m 269 640 b 289 665 278 647 283 657 b 292 671 290 668 290 669 b 278 744 332 690 314 744 b 263 742 274 744 268 744 b 254 738 261 742 256 738 b 207 707 235 736 219 721 b 240 626 179 672 207 626 b 269 640 250 626 260 631 z m 415 403 b 411 488 453 421 450 475 b 329 503 385 497 357 500 b 103 490 297 504 135 493 b 71 485 99 490 75 486 b 63 408 28 481 21 421 b 269 397 93 397 238 397 b 415 403 296 397 392 393 z m 261 179 b 286 240 290 185 304 217 b 244 289 289 268 267 289 b 193 243 219 289 200 264 b 194 194 188 228 188 208 b 233 169 203 179 218 169 b 261 179 243 169 253 174 z "},"ø":{"ha":633,"x_min":0,"x_max":0,"o":"m 104 129 b 125 169 110 143 118 157 b 163 222 133 181 146 199 b 239 206 186 211 213 206 b 432 304 314 206 382 251 b 469 592 510 386 551 514 b 460 600 465 594 463 597 b 560 724 506 657 543 703 b 607 776 574 742 590 760 b 579 843 635 804 610 843 b 556 835 572 843 564 840 b 517 796 550 829 522 800 b 396 646 499 776 413 665 b 388 635 393 642 390 639 b 306 646 361 642 332 646 b 264 643 292 646 278 646 b 219 667 254 660 238 667 b 176 651 206 667 189 661 b 74 439 128 611 85 499 b 78 325 67 401 67 361 b 103 272 83 307 92 289 l 90 256 b 24 121 60 215 26 171 b 63 79 22 94 43 79 b 104 129 94 79 100 106 z m 207 426 b 244 551 215 469 231 511 b 250 557 246 554 247 557 b 318 549 272 554 296 551 b 204 404 279 500 242 453 b 207 426 204 414 206 421 z m 242 325 b 399 524 289 388 346 458 b 414 499 407 518 411 507 b 307 342 425 443 354 372 b 242 325 289 332 263 322 z "},"ù":{"ha":554,"x_min":0,"x_max":0,"o":"m 499 214 b 492 451 501 293 492 372 b 508 653 493 518 501 586 b 508 713 510 672 515 693 b 453 754 500 740 476 754 b 400 719 431 754 410 743 b 392 693 396 711 394 701 b 301 493 383 663 317 522 b 215 367 278 449 251 403 b 174 335 204 354 190 343 l 169 351 b 158 460 158 386 158 424 b 156 665 157 528 165 597 b 115 701 153 685 136 701 b 65 661 96 701 72 678 b 42 553 51 626 46 589 b 36 415 35 507 33 461 b 63 290 39 372 46 329 b 163 219 79 254 121 219 b 358 374 246 219 317 311 b 439 153 360 310 371 185 b 458 149 446 150 451 149 b 499 214 489 149 514 182 z m 385 983 b 308 1006 376 988 318 1003 b 267 1024 300 1014 279 1024 b 232 956 236 1024 213 988 b 374 904 249 926 340 904 b 385 983 417 904 431 969 z "},"ú":{"ha":554,"x_min":0,"x_max":0,"o":"m 499 214 b 492 451 501 293 492 372 b 508 653 493 518 501 586 b 508 713 510 672 515 693 b 453 754 500 740 476 754 b 400 719 431 754 410 743 b 392 693 396 711 394 701 b 301 493 383 663 317 522 b 215 367 278 449 251 403 b 174 335 204 354 190 343 l 169 351 b 158 460 158 386 158 424 b 156 665 157 528 165 597 b 115 701 153 685 136 701 b 65 661 96 701 72 678 b 42 553 51 626 46 589 b 36 415 35 507 33 461 b 63 290 39 372 46 329 b 163 219 79 254 121 219 b 358 374 246 219 317 311 b 439 153 360 310 371 185 b 458 149 446 150 451 149 b 499 214 489 149 514 182 z m 306 897 b 358 949 314 903 351 942 b 378 965 361 951 372 964 b 369 1040 421 975 414 1040 b 338 1038 364 1040 342 1038 b 246 956 311 1032 261 978 b 279 888 224 924 250 888 b 306 897 289 888 297 890 z "},"û":{"ha":554,"x_min":0,"x_max":0,"o":"m 499 214 b 492 451 501 293 492 372 b 508 653 493 518 501 586 b 508 713 510 672 515 693 b 453 754 500 740 476 754 b 400 719 431 754 410 743 b 392 693 396 711 394 701 b 301 493 383 663 317 522 b 215 367 278 449 251 403 b 174 335 204 354 190 343 l 169 351 b 158 460 158 386 158 424 b 156 665 157 528 165 597 b 115 701 153 685 136 701 b 65 661 96 701 72 678 b 42 553 51 626 46 589 b 36 415 35 507 33 461 b 63 290 39 372 46 329 b 163 219 79 254 121 219 b 358 374 246 219 317 311 b 439 153 360 310 371 185 b 458 149 446 150 451 149 b 499 214 489 149 514 182 z m 251 810 b 328 860 279 822 300 844 b 358 825 338 849 344 832 b 376 821 364 822 371 821 b 418 856 396 821 415 835 b 376 935 421 879 394 919 b 325 953 361 947 343 953 b 303 950 318 953 310 951 b 219 894 271 942 244 917 b 181 876 203 896 189 889 b 171 832 174 863 167 846 b 215 801 176 810 194 801 b 251 810 228 801 240 804 z "},"ü":{"ha":556,"x_min":0,"x_max":0,"o":"m 500 214 b 493 451 503 293 493 372 b 510 653 494 518 503 586 b 510 713 511 672 517 693 b 454 754 501 740 478 754 b 401 719 432 754 411 743 b 393 693 397 711 396 701 b 303 493 385 663 318 522 b 217 367 279 449 253 403 b 175 335 206 354 192 343 l 171 351 b 160 460 160 386 160 424 b 157 665 158 528 167 597 b 117 701 154 685 138 701 b 67 661 97 701 74 678 b 43 553 53 626 47 589 b 38 415 36 507 35 461 b 64 290 40 372 47 329 b 164 219 81 254 122 219 b 360 374 247 219 318 311 b 440 153 361 310 372 185 b 460 149 447 150 453 149 b 500 214 490 149 515 182 z m 214 836 b 181 869 210 851 194 863 b 165 872 175 872 171 872 b 131 818 139 872 118 844 b 178 789 138 804 161 789 b 214 836 200 789 221 811 z m 382 808 b 399 811 388 808 393 810 b 393 886 440 822 436 882 b 390 888 392 886 392 888 b 339 860 369 894 346 881 b 382 808 329 831 353 804 z "},"ý":{"ha":553,"x_min":0,"x_max":0,"o":"m 276 796 b 328 882 283 806 326 871 b 286 933 333 910 313 933 b 269 929 281 933 275 932 b 206 839 246 921 215 863 b 244 781 192 807 217 781 b 276 796 256 781 267 785 z m 533 -115 b 490 -3 514 -78 499 -44 b 481 240 474 76 476 160 b 503 628 483 294 507 574 b 499 649 501 631 499 646 b 431 707 493 685 463 707 b 354 643 392 707 365 676 b 347 611 350 632 351 621 b 311 529 336 583 324 556 b 183 275 272 443 235 354 b 201 601 171 383 193 493 b 199 685 201 618 206 671 b 150 715 188 704 169 715 b 106 686 132 715 115 706 b 64 547 83 643 75 594 b 53 481 63 538 54 490 b 43 260 43 408 33 333 b 165 118 51 196 92 118 b 286 221 225 118 260 175 b 344 344 308 261 326 303 b 342 96 339 261 335 178 b 369 -37 344 50 354 6 b 499 -187 385 -78 450 -187 b 533 -115 535 -187 558 -146 z "},"þ":{"ha":493,"x_min":0,"x_max":0,"o":"m 190 -22 b 179 236 181 63 178 149 b 206 240 189 236 197 238 b 471 471 281 258 454 383 b 460 543 476 494 471 522 b 313 611 426 593 371 611 b 206 596 276 611 240 604 b 224 789 214 669 222 767 b 218 897 225 808 225 879 b 213 913 217 903 213 907 b 174 944 208 933 190 944 b 139 921 160 944 146 936 b 135 911 138 918 138 914 b 82 604 110 867 86 653 b 60 124 63 444 51 283 b 78 -22 63 75 67 26 b 164 -115 86 -65 115 -115 b 190 -22 218 -115 244 -43 z m 197 507 b 214 510 203 508 208 510 b 286 517 238 513 263 517 b 338 510 303 517 321 514 b 363 494 344 508 361 501 b 356 468 365 489 360 474 b 183 331 331 428 235 344 b 197 507 188 389 192 449 z "},"ÿ":{"ha":553,"x_min":0,"x_max":0,"o":"m 533 -115 b 490 -3 514 -78 499 -44 b 481 240 474 76 476 160 b 503 628 483 294 507 574 b 499 649 501 631 499 646 b 431 707 493 685 463 707 b 354 643 392 707 365 676 b 347 611 350 632 351 621 b 311 529 336 583 324 556 b 183 275 272 443 235 354 b 201 601 171 383 193 493 b 199 685 201 618 206 671 b 150 715 188 704 169 715 b 106 686 132 715 115 706 b 64 547 83 643 75 594 b 53 481 63 538 54 490 b 43 260 43 408 33 333 b 165 118 51 196 92 118 b 286 221 225 118 260 175 b 344 344 308 261 326 303 b 342 96 339 261 335 178 b 369 -37 344 50 354 6 b 499 -187 385 -78 450 -187 b 533 -115 535 -187 558 -146 z m 238 836 b 232 918 283 846 279 914 b 225 919 229 918 226 918 b 192 928 215 928 203 931 l 171 924 b 147 847 138 917 124 874 b 194 831 160 835 178 831 b 238 836 208 831 222 833 z m 399 853 b 410 857 401 854 406 856 b 385 929 454 875 432 942 b 347 904 371 926 354 917 b 381 849 332 876 354 849 b 399 853 386 849 393 850 z "},"Ł":{"ha":714,"x_min":0,"x_max":0,"o":"m 615 89 b 692 133 624 94 682 128 b 669 210 728 157 707 210 b 651 206 664 210 658 208 b 364 83 613 188 406 96 b 319 76 354 81 328 72 b 308 96 315 79 310 92 b 278 211 290 132 283 172 b 269 378 271 267 268 322 b 419 467 336 414 400 450 b 392 547 454 496 429 547 b 371 542 385 547 378 546 b 275 489 338 525 307 508 b 292 707 281 563 288 635 b 256 935 294 764 300 899 b 224 946 246 943 235 946 b 181 917 206 946 188 936 b 169 836 172 890 172 863 b 150 642 168 813 153 667 b 139 406 143 564 140 485 b 65 361 115 390 92 376 b 19 331 47 361 29 346 b 49 272 6 307 19 275 b 96 285 64 269 81 276 b 140 308 104 289 121 297 b 319 -40 144 194 163 -40 b 615 89 396 -40 549 50 z "},"ł":{"ha":374,"x_min":0,"x_max":0,"o":"m 254 60 b 253 75 254 63 253 72 b 247 143 253 97 249 121 b 244 361 244 215 242 289 l 249 428 b 319 465 281 446 306 460 b 290 542 367 486 339 558 b 257 526 283 539 271 533 b 278 831 265 628 275 729 b 269 936 279 865 281 903 b 268 939 268 938 268 938 b 226 978 267 964 247 978 b 169 904 193 978 174 933 b 110 469 142 767 124 608 b 108 449 110 463 108 456 b 69 426 90 439 76 431 b 32 407 53 428 39 421 b 21 379 26 399 21 389 b 65 338 21 354 42 333 b 100 349 74 338 86 342 b 111 136 96 276 96 206 b 211 -1 121 97 161 -1 b 254 60 240 -1 265 28 z "},"Œ":{"ha":1225,"x_min":0,"x_max":0,"o":"m 1143 113 b 1194 154 1161 126 1179 139 b 1165 224 1222 182 1197 224 b 1143 217 1158 224 1150 222 b 914 146 1081 174 989 146 b 853 161 889 146 867 150 b 832 192 843 169 836 181 b 813 274 819 218 815 246 b 818 461 807 336 811 399 b 850 465 833 463 844 464 b 954 496 865 468 939 490 b 935 589 1003 515 989 589 b 865 581 911 589 889 583 b 832 574 854 578 843 576 b 853 764 840 638 850 700 b 854 854 854 793 857 825 b 1050 863 917 857 1026 863 b 1140 874 1081 863 1111 869 b 1149 965 1190 881 1196 950 b 1054 986 1118 975 1086 986 b 706 935 935 986 819 961 b 683 942 697 939 690 942 b 646 879 654 942 635 906 l 644 881 b 575 890 622 888 599 890 b 528 886 560 890 543 889 b 519 892 525 885 522 889 b 489 925 508 901 501 915 b 347 985 457 954 389 985 b 158 844 263 985 197 913 b 43 433 85 722 43 575 b 336 57 43 265 146 57 b 660 285 472 57 593 174 b 883 10 668 140 721 10 b 1143 113 978 10 1071 56 z m 215 294 b 190 551 176 371 178 467 b 354 875 204 643 269 836 b 388 879 361 878 375 879 b 443 860 413 879 424 876 b 313 794 399 840 354 819 b 349 718 271 767 301 703 b 488 767 365 724 471 761 b 572 783 515 775 544 783 b 650 706 628 783 643 756 b 636 515 661 643 653 578 b 622 468 621 506 617 485 b 403 201 586 361 511 246 b 351 192 388 194 369 192 b 215 294 286 192 243 239 z m 693 853 b 733 850 706 851 719 851 b 725 817 729 839 728 828 b 693 853 719 828 704 846 z "},"œ":{"ha":833,"x_min":0,"x_max":0,"o":"m 789 185 b 769 267 835 203 818 271 b 653 258 731 263 692 258 b 500 304 601 258 538 265 b 482 369 485 321 482 347 b 686 476 554 369 642 424 b 706 696 746 542 779 646 b 633 717 685 710 658 717 b 431 588 551 717 475 651 b 426 592 431 589 428 590 b 264 646 389 629 315 646 b 222 643 250 646 236 646 b 178 667 213 660 196 667 b 32 439 100 667 43 501 b 35 325 24 401 25 361 b 199 206 58 250 119 206 b 372 286 263 206 326 243 l 372 285 b 607 143 406 188 511 143 b 789 185 669 143 732 161 z m 174 336 b 164 426 157 353 160 404 b 203 551 174 469 188 511 b 208 557 204 554 206 557 b 304 543 240 553 272 550 b 357 524 322 539 342 535 b 372 499 364 518 369 508 b 264 342 383 443 313 372 b 207 325 249 332 226 325 b 174 336 193 325 182 328 z m 628 589 b 511 474 610 538 558 500 b 628 589 535 524 571 575 z "},"Š":{"ha":776,"x_min":0,"x_max":0,"o":"m 389 1058 b 454 1154 404 1071 444 1136 b 418 1211 469 1183 444 1211 b 388 1196 407 1211 396 1207 b 357 1150 383 1190 361 1157 b 329 1183 351 1156 331 1175 b 290 1214 325 1203 310 1214 b 253 1150 260 1214 238 1181 b 319 1061 263 1135 306 1074 b 356 1047 331 1051 343 1047 b 389 1058 367 1047 378 1050 z m 731 163 b 731 304 749 210 749 257 b 642 422 714 350 679 390 b 450 538 585 471 515 504 b 151 697 399 564 189 653 b 156 715 149 701 154 710 b 189 764 163 733 176 749 b 461 897 249 826 372 897 b 571 864 497 897 554 889 b 596 821 575 856 594 829 b 632 789 599 799 615 789 b 672 831 653 789 674 803 b 674 842 671 832 674 840 b 647 939 675 875 667 913 b 467 1018 606 994 533 1018 b 31 750 322 1018 92 892 b 22 654 17 721 13 685 b 239 486 51 572 165 519 b 413 407 297 460 356 435 b 596 288 471 381 556 340 b 618 221 610 269 621 244 b 475 135 607 157 531 135 b 368 153 439 135 401 140 b 306 194 356 160 314 182 b 268 215 297 208 282 215 b 225 186 250 215 232 206 b 233 135 219 171 224 150 b 479 10 285 51 383 10 b 731 163 583 10 692 61 z "},"š":{"ha":376,"x_min":0,"x_max":0,"o":"m 207 868 b 256 900 226 874 243 886 b 331 1003 286 929 310 965 b 296 1061 347 1032 322 1061 b 265 1044 285 1061 274 1056 b 201 957 243 1015 226 982 b 193 953 199 956 196 951 b 146 1007 174 965 163 990 b 107 1019 135 1017 119 1022 b 96 943 69 1013 64 964 b 160 874 114 917 131 888 b 207 868 174 867 192 865 z m 338 331 b 329 410 344 356 340 385 b 279 486 317 438 299 463 b 181 615 246 529 210 569 b 171 646 176 622 167 638 b 179 657 174 650 176 653 b 188 660 179 658 186 660 b 267 646 214 668 242 653 b 292 719 314 633 336 701 b 228 746 268 728 250 735 b 163 761 208 756 186 761 b 43 649 103 761 49 708 b 76 525 39 606 54 561 b 174 399 106 481 140 440 b 201 361 183 386 193 374 b 126 336 179 347 153 338 b 83 340 113 336 97 339 b 60 260 36 344 18 282 b 158 233 92 240 121 233 b 338 331 232 233 318 264 z "},"Ÿ":{"ha":603,"x_min":0,"x_max":0,"o":"m 372 85 b 353 208 375 126 361 167 b 318 399 347 232 331 332 b 325 403 319 400 322 401 b 514 679 410 458 474 590 b 581 846 539 733 565 788 b 586 919 588 869 588 896 b 546 957 585 943 565 957 b 511 935 532 957 518 950 b 335 585 453 818 406 694 b 282 518 319 561 301 538 b 261 506 275 511 268 500 b 204 640 238 524 213 613 b 147 864 197 668 156 838 b 99 969 138 901 128 944 b 69 982 90 978 79 982 b 25 943 49 982 28 967 b 85 599 19 883 68 654 b 219 394 107 521 138 428 b 229 133 215 307 214 219 b 322 11 238 90 268 11 b 372 85 367 11 372 50 z m 226 1088 l 226 1089 b 193 1110 218 1103 206 1110 b 151 1071 172 1110 153 1094 b 163 1038 150 1058 154 1046 b 190 1024 169 1031 181 1026 b 226 1088 228 1015 253 1060 z m 400 1019 b 419 1039 407 1025 414 1032 b 388 1101 442 1069 415 1101 b 343 1058 367 1101 346 1079 b 381 1014 339 1033 358 1014 b 400 1019 388 1014 393 1015 z "},"Ž":{"ha":676,"x_min":0,"x_max":0,"o":"m 325 1038 b 354 1057 336 1042 346 1049 b 408 1192 383 1088 424 1153 b 374 1217 401 1208 388 1217 b 335 1179 354 1217 336 1203 b 307 1124 335 1158 321 1139 b 246 1200 288 1149 274 1183 b 225 1206 239 1204 232 1206 b 206 1133 192 1206 169 1157 b 267 1050 225 1106 240 1072 b 325 1038 282 1038 306 1032 z m 510 56 b 619 72 524 57 606 69 b 617 158 667 83 664 150 b 463 171 567 168 514 171 b 306 167 410 171 358 168 b 222 164 279 165 250 164 b 149 169 197 164 174 165 b 226 296 168 215 199 256 b 542 694 325 435 439 561 b 601 785 564 724 586 753 b 614 849 611 804 617 826 b 576 906 611 871 594 893 b 354 947 521 939 419 947 b 139 922 306 947 174 936 b 136 853 108 910 108 869 b 178 842 149 844 164 843 b 326 836 228 836 278 839 b 476 811 376 832 426 824 b 35 214 413 724 79 313 b 21 136 24 190 17 163 b 244 38 35 39 168 38 b 510 56 329 38 426 40 z "},"ž":{"ha":449,"x_min":0,"x_max":0,"o":"m 229 874 b 292 1008 260 904 288 967 b 253 1051 296 1035 275 1051 b 217 1022 238 1051 221 1042 b 185 946 210 996 200 969 b 176 939 183 943 181 936 b 144 971 164 946 153 958 b 118 1038 171 997 149 1038 b 68 1004 99 1038 76 1019 b 63 958 61 992 58 974 b 181 854 76 911 131 854 b 229 874 199 854 217 863 z m 400 286 b 367 378 446 314 421 385 b 293 379 343 375 318 379 b 185 371 257 379 221 374 b 351 542 206 394 332 518 b 388 594 365 558 378 575 b 396 651 396 613 397 632 b 272 742 396 715 325 742 b 82 696 213 742 136 719 b 43 667 67 690 51 681 b 79 599 26 636 46 599 b 121 608 94 600 110 599 b 253 619 164 613 208 621 b 186 526 232 588 210 556 b 42 347 163 500 57 381 b 83 256 25 311 46 271 b 176 243 113 244 144 243 b 400 286 251 243 335 244 z "},"ˇ":{"ha":340,"x_min":0,"x_max":0,"o":"m 296 779 b 303 864 307 806 307 836 b 265 896 300 886 282 896 b 226 857 246 896 225 883 b 226 822 226 846 228 833 b 194 796 224 808 210 796 b 124 865 179 796 132 853 b 75 908 119 890 103 908 b 32 861 51 908 28 890 b 118 740 38 829 93 761 b 196 711 140 724 168 711 b 296 779 236 711 278 744 z "},"˜":{"ha":443,"x_min":0,"x_max":0,"o":"m 406 833 b 376 897 429 861 406 897 b 351 888 368 897 360 894 b 281 832 339 876 297 835 b 213 863 264 829 226 854 b 136 879 190 876 163 885 b 63 838 110 872 86 854 b 29 790 42 833 26 813 b 71 754 32 767 51 754 b 99 763 81 754 90 757 b 138 789 113 771 125 781 b 163 799 146 794 154 801 b 215 769 169 794 208 772 b 278 754 235 760 256 754 b 406 833 329 754 375 796 z "},"ẞ":{"ha":799,"x_min":0,"x_max":0,"o":"m 257 36 b 183 440 226 169 190 304 b 224 649 181 511 190 586 b 506 832 275 746 394 832 b 611 789 536 832 599 821 b 553 683 624 756 579 708 b 481 626 531 663 506 643 b 428 624 464 629 444 629 b 421 492 364 604 358 517 b 478 488 439 485 458 483 b 618 354 521 464 603 406 b 621 322 622 344 625 332 b 608 307 619 315 614 310 b 525 282 588 293 556 282 b 474 297 506 282 486 286 b 444 322 464 304 456 315 b 414 343 440 325 418 340 b 383 354 404 350 394 354 b 339 288 353 354 324 322 b 369 222 347 265 353 240 b 519 156 408 178 461 156 b 749 314 622 156 733 215 b 725 444 757 357 746 406 b 618 563 701 492 661 531 b 739 722 669 603 718 658 b 738 833 750 758 750 797 b 501 969 704 929 594 969 b 85 686 325 969 156 846 b 49 417 49 603 40 507 b 144 75 58 299 96 183 b 192 -8 151 58 176 3 b 215 -17 200 -14 207 -17 b 257 36 240 -17 264 7 z "},"‘":{"ha":168,"x_min":0,"x_max":0,"o":"m 136 843 b 129 860 135 844 131 857 b 121 878 128 863 121 875 b 104 907 121 889 113 900 b 72 921 96 917 83 921 b 31 883 53 921 33 907 b 54 801 26 856 39 825 b 92 781 64 788 78 781 b 136 843 121 781 149 808 z "},"’":{"ha":164,"x_min":0,"x_max":0,"o":"m 125 783 b 124 826 126 797 125 813 b 101 890 143 850 132 886 b 49 879 89 893 58 888 b 31 835 38 868 31 850 b 43 769 29 813 35 790 b 82 742 50 751 67 742 b 125 783 104 742 124 757 z "},"‚":{"ha":164,"x_min":0,"x_max":0,"o":"m 100 -67 b 107 -25 103 -53 104 -39 b 135 65 110 -12 131 53 b 99 117 146 94 122 117 b 50 68 72 117 58 89 b 19 -60 32 29 17 -17 b 61 -97 22 -85 42 -97 b 100 -67 78 -97 94 -87 z "},"“":{"ha":310,"x_min":0,"x_max":0,"o":"m 122 807 b 119 846 122 813 119 842 b 94 914 139 869 124 904 b 32 871 64 922 36 901 b 46 790 28 844 36 815 b 82 767 53 774 68 767 b 122 807 103 767 124 782 z m 279 835 b 274 869 279 840 275 865 b 231 907 269 894 250 907 b 185 858 207 907 183 889 b 236 788 188 826 194 788 b 279 835 260 788 282 804 z "},"”":{"ha":283,"x_min":0,"x_max":0,"o":"m 119 797 b 126 899 131 829 131 865 b 82 940 122 926 101 940 b 39 900 61 940 42 928 b 38 801 33 868 31 833 b 79 767 42 779 61 767 b 119 797 97 767 114 776 z m 247 849 b 246 897 242 864 253 882 b 213 922 239 915 226 922 b 160 874 190 922 165 903 b 196 793 153 843 165 803 b 247 849 229 783 261 817 z "},"„":{"ha":283,"x_min":0,"x_max":0,"o":"m 115 -25 b 121 0 115 -22 121 -3 b 126 49 122 7 124 42 b 86 100 138 78 113 100 b 53 85 74 100 63 96 b 28 19 38 67 33 42 b 40 -46 22 -1 26 -29 b 72 -61 49 -56 61 -61 b 115 -25 93 -61 111 -47 z m 254 -14 b 249 19 250 -3 249 8 b 221 85 272 46 251 85 b 169 50 201 85 176 68 b 193 -62 156 13 160 -43 b 214 -68 200 -67 207 -68 b 254 -14 240 -68 263 -43 z "},"‹":{"ha":444,"x_min":0,"x_max":0,"o":"m 378 354 b 368 438 426 365 418 438 b 321 436 353 438 336 436 b 151 489 261 439 203 461 b 258 597 186 525 222 560 b 308 643 274 613 289 632 b 276 714 350 667 321 731 b 247 699 272 711 251 701 b 58 526 215 676 83 556 b 39 461 43 510 33 483 b 82 410 44 440 64 422 b 296 343 146 372 221 343 b 378 354 324 343 351 347 z "},"›":{"ha":367,"x_min":0,"x_max":0,"o":"m 119 379 b 258 483 142 392 239 467 b 322 557 283 504 310 526 b 299 646 336 588 326 624 b 111 700 264 672 156 700 b 96 703 106 701 100 703 b 83 626 57 703 40 643 b 101 617 90 624 94 618 b 215 579 115 611 201 585 b 138 513 192 554 164 535 b 49 439 124 501 58 454 b 75 371 31 414 44 378 b 85 369 78 371 82 369 b 119 379 97 369 108 374 z "},"€":{"ha":849,"x_min":0,"x_max":0,"o":"m 806 143 b 765 221 847 174 814 238 b 676 189 754 218 688 193 b 533 169 631 176 582 169 b 300 304 431 169 325 190 b 297 329 299 313 297 321 l 360 333 b 533 356 382 336 511 351 b 528 436 582 364 578 435 b 335 428 501 438 363 431 b 303 424 325 426 314 425 b 332 526 310 458 318 493 b 485 539 397 532 465 538 b 561 542 510 539 536 540 b 585 544 569 543 576 544 b 607 622 626 544 643 599 b 454 663 556 656 513 663 b 400 660 436 663 418 663 b 396 658 399 660 397 660 b 576 825 433 719 496 819 b 613 808 586 814 600 808 b 651 864 642 808 667 833 b 647 879 651 867 647 878 b 544 938 633 921 585 938 b 229 631 400 938 282 751 b 178 619 211 626 194 624 b 146 636 169 631 158 636 b 76 589 124 636 85 608 b 100 525 64 565 75 536 b 186 518 126 514 157 517 b 169 436 179 490 174 464 b 165 400 167 425 165 413 b 140 394 157 399 149 397 b 43 340 111 388 51 369 b 79 290 35 314 56 290 b 99 296 86 290 92 293 b 165 317 119 307 142 313 b 518 46 183 115 340 46 b 806 143 628 46 718 78 z "},"−":{"ha":465,"x_min":0,"x_max":0,"o":"m 400 453 b 399 538 454 457 453 536 b 226 543 342 540 283 543 b 107 538 186 543 146 542 b 65 531 101 536 69 532 b 50 453 22 526 10 469 b 72 449 57 450 65 450 b 190 444 111 446 150 444 b 400 453 260 444 331 449 z "}}}
